<svg xmlns="http://www.w3.org/2000/svg" version="1.1" xmlns:xlink="http://www.w3.org/1999/xlink" xmlns:svgjs="http://svgjs.dev/svgjs" width="1000" height="1000" viewBox="0 0 1000 1000"><rect width="1000" height="1000" fill="#ffffff"></rect><g transform="matrix(0.7,0,0,0.7,149.57575784654512,376.0656903662666)"><svg viewBox="0 0 396 140" data-background-color="#0093fb" preserveAspectRatio="xMidYMid meet" height="353" width="1000" xmlns="http://www.w3.org/2000/svg" xmlns:xlink="http://www.w3.org/1999/xlink"><g id="tight-bounds" transform="matrix(1,0,0,1,0.24000015318836176,0.21773916925403114)"><svg viewBox="0 0 395.52 139.56452166149197" height="139.56452166149197" width="395.52"><g><svg viewBox="0 0 569.6255685440087 200.99999999999997" height="139.56452166149197" width="395.52"><g><rect width="4.163162856393738" height="200.99999999999997" x="183.15672723479696" y="0" fill="#000000" opacity="1" stroke-width="0" stroke="transparent" fill-opacity="1" class="rect-o-0" data-fill-palette-color="primary" rx="1%" id="o-0" data-palette-color="#ffffff"></rect></g><g transform="matrix(1,0,0,1,198.21822217599106,0.4999999999999858)"><svg viewBox="0 0 371.4073463680176 200" height="200" width="371.4073463680176"><g><svg viewBox="0 0 371.4073463680176 200" height="200" width="371.4073463680176"><g><svg viewBox="0 0 371.4073463680176 200" height="200" width="371.4073463680176"><g transform="matrix(1,0,0,1,0,0)"><svg width="371.4073463680176" viewBox="1.4600000381469727 -35.44999694824219 290.5100402832031 153.4400177001953" height="200" data-palette-color="#ffffff"><svg></svg><svg></svg><svg></svg><svg></svg><g class="undefined-text-0" data-fill-palette-color="primary" id="text-0"><path xmlns="http://www.w3.org/2000/svg" d="M1.66 0v0c-0.033 0-0.073-0.02-0.12-0.06-0.053-0.04-0.08-0.087-0.08-0.14v0-1.07c0-0.127 0.067-0.19 0.2-0.19v0c0.18 0 0.383 0 0.61 0 0.227 0 0.45-0.01 0.67-0.03 0.22-0.013 0.42-0.03 0.6-0.05 0.18-0.013 0.32-0.047 0.42-0.1v0c0.407-0.193 0.74-0.453 1-0.78 0.26-0.327 0.457-0.7 0.59-1.12 0.14-0.42 0.233-0.883 0.28-1.39 0.053-0.507 0.08-1.043 0.08-1.61v0-24.39c0-0.44-0.177-0.793-0.53-1.06-0.347-0.273-0.753-0.477-1.22-0.61-0.46-0.14-0.93-0.237-1.41-0.29-0.48-0.047-0.843-0.07-1.09-0.07v0c-0.08 0-0.133-0.023-0.16-0.07-0.027-0.053-0.04-0.093-0.04-0.12v0-1.08c0-0.033 0.013-0.073 0.04-0.12 0.027-0.047 0.08-0.07 0.16-0.07v0h11.06l21.04 23.29c0.087 0.08 0.147 0.14 0.18 0.18 0.027 0.04 0.067 0.06 0.12 0.06v0c0.067 0 0.107-0.023 0.12-0.07 0.013-0.053 0.02-0.103 0.02-0.15v0-14.5c0-1.613-0.057-2.903-0.17-3.87-0.113-0.967-0.323-1.707-0.63-2.22-0.313-0.513-0.73-0.85-1.25-1.01-0.52-0.167-1.187-0.25-2-0.25v0h-1.24c-0.087 0-0.14-0.023-0.16-0.07-0.027-0.053-0.04-0.093-0.04-0.12v0-1.08c0-0.033 0.013-0.073 0.04-0.12 0.02-0.047 0.073-0.07 0.16-0.07v0h13.42c0.1 0 0.157 0.023 0.17 0.07 0.02 0.047 0.03 0.087 0.03 0.12v0 1.08c0 0.027-0.013 0.067-0.04 0.12-0.02 0.047-0.073 0.07-0.16 0.07v0c-0.32 0-0.737 0.067-1.25 0.2-0.513 0.127-1.013 0.313-1.5 0.56-0.493 0.24-0.913 0.54-1.26 0.9-0.353 0.36-0.53 0.767-0.53 1.22v0 28.88c0 0.28-0.063 0.513-0.19 0.7-0.133 0.187-0.3 0.337-0.5 0.45-0.207 0.113-0.427 0.2-0.66 0.26-0.24 0.053-0.457 0.08-0.65 0.08v0c-0.327 0-0.703-0.067-1.13-0.2-0.433-0.14-0.863-0.447-1.29-0.92v0l-23.04-25.56c-0.113-0.113-0.197-0.183-0.25-0.21-0.047-0.027-0.11-0.04-0.19-0.04v0c-0.08 0-0.12 0.083-0.12 0.25v0 21.8c0 0.453 0.11 0.847 0.33 1.18 0.213 0.333 0.493 0.62 0.84 0.86 0.34 0.233 0.717 0.42 1.13 0.56 0.42 0.14 0.827 0.25 1.22 0.33 0.4 0.08 0.76 0.133 1.08 0.16 0.313 0.027 0.553 0.04 0.72 0.04v0c0.08 0 0.137 0.03 0.17 0.09v0c0.013 0.033 0.02 0.067 0.02 0.1v0 1.07c0 0.033-0.01 0.077-0.03 0.13-0.027 0.047-0.08 0.07-0.16 0.07v0zM42.46-0.2v-0.95c0-0.127 0.063-0.19 0.19-0.19v0c0.313-0.02 0.677-0.067 1.09-0.14 0.413-0.073 0.837-0.227 1.27-0.46 0.427-0.233 0.843-0.583 1.25-1.05 0.413-0.467 0.757-1.107 1.03-1.92v0l9.81-28.46c0 0.013 0.007 0.003 0.02-0.03 0.007-0.033 0.01-0.067 0.01-0.1v0c0-0.113-0.047-0.253-0.14-0.42-0.087-0.173-0.13-0.3-0.13-0.38v0c0-0.08 0.033-0.12 0.1-0.12v0h7.08c0.033 0.013 0.077 0.027 0.13 0.04 0.06 0.02 0.107 0.07 0.14 0.15v0l10.32 28.98c0.167 0.453 0.323 0.843 0.47 1.17 0.147 0.327 0.32 0.617 0.52 0.87 0.207 0.253 0.463 0.48 0.77 0.68 0.313 0.207 0.713 0.417 1.2 0.63v0c0.227 0.113 0.537 0.233 0.93 0.36 0.387 0.133 0.76 0.2 1.12 0.2v0c0.08 0 0.133 0.023 0.16 0.07 0.02 0.047 0.03 0.097 0.03 0.15v0 0.92c0 0.033-0.01 0.077-0.03 0.13-0.027 0.047-0.08 0.07-0.16 0.07v0h-17.14c-0.08 0-0.133-0.023-0.16-0.07-0.027-0.053-0.04-0.097-0.04-0.13v0-0.95c0-0.033 0.013-0.073 0.04-0.12 0.027-0.047 0.08-0.07 0.16-0.07v0c0.067 0 0.133-0.003 0.2-0.01 0.06-0.013 0.107-0.02 0.14-0.02v0c0.18-0.013 0.437-0.03 0.77-0.05 0.333-0.013 0.697-0.04 1.09-0.08 0.387-0.04 0.78-0.107 1.18-0.2 0.4-0.087 0.763-0.217 1.09-0.39 0.327-0.167 0.593-0.39 0.8-0.67 0.213-0.273 0.32-0.613 0.32-1.02v0c0-0.1-0.017-0.217-0.05-0.35v0l-3.2-8.81c-0.013-0.033-0.04-0.107-0.08-0.22-0.04-0.113-0.107-0.23-0.2-0.35-0.087-0.127-0.2-0.237-0.34-0.33-0.14-0.1-0.307-0.15-0.5-0.15v0h-8.81c-0.213 0-0.393 0.05-0.54 0.15-0.147 0.093-0.27 0.197-0.37 0.31-0.093 0.12-0.17 0.237-0.23 0.35-0.053 0.113-0.08 0.177-0.08 0.19v0c-0.52 1.533-0.96 2.823-1.32 3.87-0.36 1.053-0.657 1.92-0.89 2.6-0.24 0.687-0.423 1.217-0.55 1.59-0.133 0.373-0.227 0.647-0.28 0.82-0.06 0.167-0.093 0.27-0.1 0.31-0.007 0.04-0.01 0.06-0.01 0.06v0c0 0.053 0.007 0.107 0.02 0.16 0.02 0.06 0.037 0.113 0.05 0.16v0c0.133 0.407 0.373 0.747 0.72 1.02 0.353 0.267 0.757 0.477 1.21 0.63 0.453 0.153 0.92 0.263 1.4 0.33 0.48 0.067 0.907 0.1 1.28 0.1v0h0.64c0.08 0 0.133 0.023 0.16 0.07 0.02 0.047 0.03 0.087 0.03 0.12v0 0.95c0 0.033-0.01 0.077-0.03 0.13-0.027 0.047-0.08 0.07-0.16 0.07v0h-13.21c-0.127 0-0.19-0.067-0.19-0.2zM58.33-26.39l-3.08 8.89c-0.033 0.08-0.057 0.16-0.07 0.24-0.02 0.08-0.03 0.16-0.03 0.24v0c0 0.1 0.023 0.18 0.07 0.24 0.053 0.053 0.153 0.08 0.3 0.08v0h7.32c0.18 0 0.3-0.037 0.36-0.11 0.053-0.073 0.08-0.16 0.08-0.26v0c0-0.08-0.007-0.153-0.02-0.22-0.02-0.06-0.047-0.13-0.08-0.21v0l-3.24-8.92c-0.087-0.227-0.21-0.393-0.37-0.5-0.16-0.107-0.307-0.16-0.44-0.16v0c-0.127 0-0.273 0.063-0.44 0.19-0.16 0.12-0.28 0.287-0.36 0.5zM94.8-30.69v0c0-0.34-0.07-0.53-0.21-0.57-0.14-0.04-0.307-0.077-0.5-0.11v0h-8.27c-0.607 0.127-1.08 0.367-1.42 0.72-0.34 0.347-0.61 0.757-0.81 1.23-0.193 0.473-0.34 0.983-0.44 1.53-0.093 0.54-0.197 1.063-0.31 1.57v0c-0.033 0.147-0.067 0.323-0.1 0.53-0.033 0.2-0.067 0.317-0.1 0.35v0c-0.033 0.047-0.09 0.07-0.17 0.07v0h-0.8c-0.1 0-0.15-0.03-0.15-0.09v0-0.81l0.9-8.35c0.033-0.18 0.107-0.35 0.22-0.51 0.113-0.167 0.293-0.25 0.54-0.25v0c0.113 0 0.223 0.033 0.33 0.1 0.107 0.067 0.207 0.143 0.3 0.23 0.1 0.093 0.193 0.18 0.28 0.26 0.093 0.08 0.19 0.137 0.29 0.17v0c0.193 0.08 0.373 0.133 0.54 0.16 0.173 0.027 0.367 0.04 0.58 0.04v0h25.58c0.213 0 0.407-0.013 0.58-0.04 0.167-0.027 0.35-0.08 0.55-0.16v0c0.093-0.033 0.187-0.09 0.28-0.17 0.087-0.08 0.18-0.167 0.28-0.26 0.1-0.087 0.2-0.163 0.3-0.23 0.107-0.067 0.217-0.1 0.33-0.1v0c0.247 0 0.427 0.083 0.54 0.25 0.113 0.16 0.187 0.33 0.22 0.51v0l0.9 8.35v0.81c0 0.06-0.047 0.09-0.14 0.09v0h-0.81c-0.08 0-0.137-0.023-0.17-0.07v0c-0.033-0.033-0.067-0.15-0.1-0.35-0.033-0.207-0.063-0.383-0.09-0.53v0c-0.12-0.507-0.227-1.03-0.32-1.57-0.1-0.547-0.247-1.057-0.44-1.53-0.193-0.473-0.463-0.883-0.81-1.23-0.34-0.353-0.81-0.593-1.41-0.72v0h-8.3c-0.2 0.033-0.367 0.07-0.5 0.11-0.14 0.04-0.21 0.23-0.21 0.57v0 25.93c0 0.487 0.12 0.923 0.36 1.31 0.247 0.38 0.577 0.717 0.99 1.01 0.42 0.293 0.91 0.53 1.47 0.71 0.56 0.18 1.157 0.3 1.79 0.36v0c0.18 0.02 0.41 0.03 0.69 0.03 0.273 0 0.507 0 0.7 0v0c0.087 0 0.14 0.023 0.16 0.07 0.027 0.047 0.04 0.087 0.04 0.12v0 0.95c0 0.033-0.013 0.077-0.04 0.13-0.02 0.047-0.073 0.07-0.16 0.07v0h-18.97c-0.08 0-0.13-0.023-0.15-0.07-0.027-0.053-0.04-0.097-0.04-0.13v0-0.95c0-0.033 0.013-0.073 0.04-0.12 0.02-0.047 0.07-0.07 0.15-0.07v0c0.18 0 0.413 0 0.7 0 0.287 0 0.52-0.01 0.7-0.03v0c0.633-0.06 1.23-0.18 1.79-0.36 0.56-0.18 1.047-0.417 1.46-0.71 0.42-0.293 0.75-0.63 0.99-1.01 0.247-0.387 0.37-0.823 0.37-1.31v0zM129.74-4.64v0c0 0.553 0.083 1.017 0.25 1.39 0.173 0.373 0.42 0.677 0.74 0.91 0.313 0.227 0.703 0.387 1.17 0.48 0.46 0.1 0.977 0.15 1.55 0.15v0c0.127 0 0.19 0.067 0.19 0.2v0 1.31c0 0.053-0.007 0.1-0.02 0.14-0.02 0.04-0.077 0.06-0.17 0.06v0h-14.43c-0.08 0-0.133-0.023-0.16-0.07-0.027-0.053-0.04-0.097-0.04-0.13v0-1.31c0-0.033 0.013-0.077 0.04-0.13 0.027-0.047 0.08-0.07 0.16-0.07v0c0.567 0 1.083-0.037 1.55-0.11 0.46-0.073 0.853-0.23 1.18-0.47 0.327-0.247 0.58-0.597 0.76-1.05 0.18-0.46 0.27-1.08 0.27-1.86v0-24.59c0-0.553-0.087-1.017-0.26-1.39-0.167-0.373-0.41-0.673-0.73-0.9-0.32-0.227-0.71-0.39-1.17-0.49-0.467-0.093-0.983-0.14-1.55-0.14v0c-0.133 0-0.2-0.067-0.2-0.2v0-1.32c0-0.127 0.067-0.19 0.2-0.19v0h14.43c0.08 0 0.13 0.023 0.15 0.07 0.027 0.047 0.04 0.087 0.04 0.12v0 1.32c0 0.033-0.013 0.073-0.04 0.12-0.02 0.053-0.07 0.08-0.15 0.08v0c-0.573 0-1.09 0.037-1.55 0.11-0.467 0.067-0.863 0.223-1.19 0.47-0.327 0.247-0.58 0.597-0.76 1.05-0.173 0.453-0.26 1.073-0.26 1.86v0zM157.91 0.63v0c-0.567 0-1.28-0.047-2.14-0.14-0.853-0.1-1.787-0.28-2.8-0.54-1.02-0.26-2.083-0.6-3.19-1.02-1.107-0.427-2.193-0.97-3.26-1.63-1.067-0.66-2.08-1.44-3.04-2.34-0.96-0.907-1.803-1.957-2.53-3.15-0.72-1.2-1.297-2.563-1.73-4.09-0.433-1.533-0.65-3.25-0.65-5.15v0c0-1.693 0.233-3.313 0.7-4.86 0.467-1.547 1.13-2.987 1.99-4.32 0.86-1.333 1.907-2.547 3.14-3.64 1.227-1.087 2.597-2.013 4.11-2.78 1.513-0.767 3.157-1.36 4.93-1.78 1.773-0.427 3.637-0.64 5.59-0.64v0c1.693 0 3.333 0.207 4.92 0.62 1.587 0.42 3.073 1.007 4.46 1.76 1.38 0.76 2.643 1.667 3.79 2.72 1.153 1.06 2.143 2.24 2.97 3.54 0.833 1.307 1.477 2.71 1.93 4.21 0.453 1.507 0.68 3.073 0.68 4.7v0c0 1.533-0.22 3.053-0.66 4.56-0.44 1.507-1.073 2.947-1.9 4.32-0.833 1.373-1.84 2.647-3.02 3.82-1.18 1.173-2.5 2.193-3.96 3.06-1.467 0.873-3.07 1.553-4.81 2.04-1.74 0.487-3.58 0.73-5.52 0.73zM145.75-18.33v0c0 1.313 0.133 2.63 0.4 3.95 0.273 1.32 0.67 2.59 1.19 3.81 0.52 1.22 1.163 2.363 1.93 3.43 0.767 1.067 1.637 1.993 2.61 2.78 0.973 0.793 2.06 1.413 3.26 1.86 1.193 0.447 2.49 0.67 3.89 0.67v0c1.973 0 3.683-0.42 5.13-1.26 1.447-0.84 2.647-1.95 3.6-3.33 0.953-1.387 1.663-2.977 2.13-4.77 0.46-1.8 0.69-3.66 0.69-5.58v0c0-1.4-0.133-2.773-0.4-4.12-0.267-1.34-0.657-2.617-1.17-3.83-0.513-1.213-1.15-2.327-1.91-3.34-0.753-1.02-1.623-1.903-2.61-2.65-0.987-0.753-2.077-1.337-3.27-1.75-1.2-0.413-2.5-0.62-3.9-0.62v0c-1.253 0-2.407 0.193-3.46 0.58-1.06 0.393-2.017 0.927-2.87 1.6-0.853 0.68-1.607 1.487-2.26 2.42-0.653 0.933-1.2 1.947-1.64 3.04-0.433 1.093-0.767 2.247-1 3.46-0.227 1.207-0.34 2.423-0.34 3.65zM182.13 0v0c-0.033 0-0.073-0.02-0.12-0.06-0.053-0.04-0.08-0.087-0.08-0.14v0-1.07c0-0.127 0.067-0.19 0.2-0.19v0c0.18 0 0.383 0 0.61 0 0.227 0 0.45-0.01 0.67-0.03 0.22-0.013 0.42-0.03 0.6-0.05 0.18-0.013 0.317-0.047 0.41-0.1v0c0.407-0.193 0.74-0.453 1-0.78 0.267-0.327 0.467-0.7 0.6-1.12 0.14-0.42 0.233-0.883 0.28-1.39 0.053-0.507 0.08-1.043 0.08-1.61v0-24.39c0-0.44-0.177-0.793-0.53-1.06-0.347-0.273-0.753-0.477-1.22-0.61-0.46-0.14-0.93-0.237-1.41-0.29-0.48-0.047-0.843-0.07-1.09-0.07v0c-0.08 0-0.133-0.023-0.16-0.07-0.027-0.053-0.04-0.093-0.04-0.12v0-1.08c0-0.033 0.013-0.073 0.04-0.12 0.027-0.047 0.08-0.07 0.16-0.07v0h11.06l21.04 23.29c0.087 0.08 0.143 0.14 0.17 0.18 0.033 0.04 0.077 0.06 0.13 0.06v0c0.06 0 0.1-0.023 0.12-0.07 0.013-0.053 0.02-0.103 0.02-0.15v0-14.5c0-1.613-0.057-2.903-0.17-3.87-0.113-0.967-0.323-1.707-0.63-2.22-0.313-0.513-0.73-0.85-1.25-1.01-0.52-0.167-1.187-0.25-2-0.25v0h-1.24c-0.087 0-0.14-0.023-0.16-0.07-0.027-0.053-0.04-0.093-0.04-0.12v0-1.08c0-0.033 0.013-0.073 0.04-0.12 0.02-0.047 0.073-0.07 0.16-0.07v0h13.42c0.1 0 0.157 0.023 0.17 0.07 0.02 0.047 0.03 0.087 0.03 0.12v0 1.08c0 0.027-0.013 0.067-0.04 0.12-0.027 0.047-0.08 0.07-0.16 0.07v0c-0.327 0-0.743 0.067-1.25 0.2-0.513 0.127-1.017 0.313-1.51 0.56-0.487 0.24-0.903 0.54-1.25 0.9-0.353 0.36-0.53 0.767-0.53 1.22v0 28.88c0 0.28-0.063 0.513-0.19 0.7-0.133 0.187-0.3 0.337-0.5 0.45-0.207 0.113-0.427 0.2-0.66 0.26-0.24 0.053-0.457 0.08-0.65 0.08v0c-0.327 0-0.707-0.067-1.14-0.2-0.427-0.14-0.853-0.447-1.28-0.92v0l-23.04-25.56c-0.113-0.113-0.197-0.183-0.25-0.21-0.047-0.027-0.11-0.04-0.19-0.04v0c-0.087 0-0.13 0.083-0.13 0.25v0 21.8c0 0.453 0.11 0.847 0.33 1.18 0.22 0.333 0.503 0.62 0.85 0.86 0.34 0.233 0.717 0.42 1.13 0.56 0.413 0.14 0.82 0.25 1.22 0.33 0.4 0.08 0.76 0.133 1.08 0.16 0.313 0.027 0.553 0.04 0.72 0.04v0c0.08 0 0.137 0.03 0.17 0.09v0c0.013 0.033 0.02 0.067 0.02 0.1v0 1.07c0 0.033-0.01 0.077-0.03 0.13-0.027 0.047-0.08 0.07-0.16 0.07v0zM222.92-0.2v-0.95c0-0.127 0.067-0.19 0.2-0.19v0c0.307-0.02 0.67-0.067 1.09-0.14 0.413-0.073 0.837-0.227 1.27-0.46 0.427-0.233 0.843-0.583 1.25-1.05 0.407-0.467 0.75-1.107 1.03-1.92v0l9.81-28.46c0 0.013 0.007 0.003 0.02-0.03 0.007-0.033 0.01-0.067 0.01-0.1v0c0-0.113-0.047-0.253-0.14-0.42-0.087-0.173-0.13-0.3-0.13-0.38v0c0-0.08 0.033-0.12 0.1-0.12v0h7.08c0.033 0.013 0.077 0.027 0.13 0.04 0.06 0.02 0.107 0.07 0.14 0.15v0l10.32 28.98c0.167 0.453 0.323 0.843 0.47 1.17 0.147 0.327 0.32 0.617 0.52 0.87 0.207 0.253 0.463 0.48 0.77 0.68 0.307 0.207 0.707 0.417 1.2 0.63v0c0.227 0.113 0.533 0.233 0.92 0.36 0.393 0.133 0.77 0.2 1.13 0.2v0c0.08 0 0.133 0.023 0.16 0.07 0.02 0.047 0.03 0.097 0.03 0.15v0 0.92c0 0.033-0.01 0.077-0.03 0.13-0.027 0.047-0.08 0.07-0.16 0.07v0h-17.14c-0.08 0-0.133-0.023-0.16-0.07-0.027-0.053-0.04-0.097-0.04-0.13v0-0.95c0-0.033 0.013-0.073 0.04-0.12 0.027-0.047 0.08-0.07 0.16-0.07v0c0.067 0 0.13-0.003 0.19-0.01 0.067-0.013 0.117-0.02 0.15-0.02v0c0.18-0.013 0.437-0.03 0.77-0.05 0.333-0.013 0.697-0.04 1.09-0.08 0.387-0.04 0.78-0.107 1.18-0.2 0.4-0.087 0.763-0.217 1.09-0.39 0.32-0.167 0.587-0.39 0.8-0.67 0.213-0.273 0.32-0.613 0.32-1.02v0c0-0.1-0.017-0.217-0.05-0.35v0l-3.2-8.81c-0.013-0.033-0.04-0.107-0.08-0.22-0.04-0.113-0.107-0.23-0.2-0.35-0.087-0.127-0.2-0.237-0.34-0.33-0.14-0.1-0.307-0.15-0.5-0.15v0h-8.81c-0.213 0-0.393 0.05-0.54 0.15-0.147 0.093-0.27 0.197-0.37 0.31-0.093 0.12-0.17 0.237-0.23 0.35-0.053 0.113-0.08 0.177-0.08 0.19v0c-0.527 1.533-0.967 2.823-1.32 3.87-0.36 1.053-0.657 1.92-0.89 2.6-0.24 0.687-0.423 1.217-0.55 1.59-0.133 0.373-0.227 0.647-0.28 0.82-0.06 0.167-0.093 0.27-0.1 0.31-0.007 0.04-0.01 0.06-0.01 0.06v0c0 0.053 0.007 0.107 0.02 0.16 0.013 0.06 0.03 0.113 0.05 0.16v0c0.127 0.407 0.367 0.747 0.72 1.02 0.347 0.267 0.75 0.477 1.21 0.63 0.453 0.153 0.92 0.263 1.4 0.33 0.48 0.067 0.907 0.1 1.28 0.1v0h0.64c0.08 0 0.133 0.023 0.16 0.07 0.02 0.047 0.03 0.087 0.03 0.12v0 0.95c0 0.033-0.01 0.077-0.03 0.13-0.027 0.047-0.08 0.07-0.16 0.07v0h-13.21c-0.133 0-0.2-0.067-0.2-0.2zM238.79-26.39l-3.07 8.89c-0.033 0.08-0.06 0.16-0.08 0.24-0.013 0.08-0.02 0.16-0.02 0.24v0c0 0.1 0.023 0.18 0.07 0.24 0.053 0.053 0.153 0.08 0.3 0.08v0h7.32c0.18 0 0.297-0.037 0.35-0.11 0.06-0.073 0.09-0.16 0.09-0.26v0c0-0.08-0.007-0.153-0.02-0.22-0.02-0.06-0.047-0.13-0.08-0.21v0l-3.24-8.92c-0.087-0.227-0.21-0.393-0.37-0.5-0.167-0.107-0.313-0.16-0.44-0.16v0c-0.133 0-0.28 0.063-0.44 0.19-0.16 0.12-0.283 0.287-0.37 0.5zM261.6 0v0c-0.087 0-0.14-0.023-0.16-0.07-0.027-0.053-0.04-0.097-0.04-0.13v0-1.31c0-0.033 0.01-0.077 0.03-0.13 0.013-0.047 0.07-0.07 0.17-0.07v0h0.58c0.053 0 0.213-0.013 0.48-0.04 0.267-0.02 0.577-0.06 0.93-0.12 0.347-0.053 0.707-0.13 1.08-0.23 0.373-0.1 0.693-0.223 0.96-0.37v0c0.567-0.32 0.987-0.737 1.26-1.25 0.28-0.513 0.42-1.087 0.42-1.72v0-24.37c0-0.587-0.19-1.067-0.57-1.44-0.387-0.373-0.843-0.67-1.37-0.89-0.527-0.22-1.063-0.37-1.61-0.45-0.547-0.08-0.983-0.12-1.31-0.12v0h-0.54c-0.08 0-0.13-0.03-0.15-0.09-0.027-0.06-0.04-0.097-0.04-0.11v0-1.32c0-0.033 0.013-0.073 0.04-0.12 0.02-0.047 0.07-0.07 0.15-0.07v0h18.73c0.08 0 0.133 0.023 0.16 0.07 0.02 0.047 0.03 0.087 0.03 0.12v0 1.32c0 0.033-0.01 0.073-0.03 0.12-0.027 0.053-0.08 0.08-0.16 0.08v0h-1.05c-0.913 0-1.76 0.07-2.54 0.21-0.78 0.147-1.413 0.31-1.9 0.49v0c-0.38 0.133-0.62 0.35-0.72 0.65-0.107 0.3-0.16 0.817-0.16 1.55v0 25.61c0.033 0.28 0.18 0.54 0.44 0.78 0.26 0.247 0.553 0.37 0.88 0.37v0h8.54c0.573 0 1.113-0.123 1.62-0.37 0.513-0.24 0.99-0.553 1.43-0.94 0.44-0.38 0.847-0.8 1.22-1.26 0.373-0.453 0.717-0.89 1.03-1.31 0.307-0.427 0.583-0.807 0.83-1.14 0.247-0.333 0.457-0.573 0.63-0.72v0c0.087-0.047 0.18-0.097 0.28-0.15 0.107-0.047 0.233-0.07 0.38-0.07v0c0.28 0 0.42 0.107 0.42 0.32v0c0 0.1-0.027 0.197-0.08 0.29v0l-4.05 7.96c-0.067 0.133-0.14 0.24-0.22 0.32-0.08 0.08-0.177 0.12-0.29 0.12v0z" fill="#000000" fill-rule="nonzero" stroke="none" stroke-width="1" stroke-linecap="butt" stroke-linejoin="miter" stroke-miterlimit="10" stroke-dasharray="" stroke-dashoffset="0" font-family="none" font-weight="none" font-size="none" text-anchor="none" style="mix-blend-mode: normal" data-fill-palette-color="primary" opacity="1"></path><path xmlns="http://www.w3.org/2000/svg" d="M2.56 22.12v0c0-1.827 0.23-3.55 0.69-5.17 0.453-1.613 1.097-3.107 1.93-4.48 0.827-1.367 1.827-2.593 3-3.68 1.173-1.093 2.47-2.017 3.89-2.77 1.427-0.76 2.953-1.343 4.58-1.75 1.627-0.407 3.327-0.61 5.1-0.61v0c1.5 0 2.947 0.133 4.34 0.4 1.387 0.273 2.823 0.587 4.31 0.94v0c0.24 0.067 0.493 0.15 0.76 0.25 0.273 0.093 0.527 0.187 0.76 0.28 0.24 0.087 0.457 0.163 0.65 0.23 0.193 0.067 0.34 0.1 0.44 0.1v0c0.033 0 0.143-0.033 0.33-0.1 0.187-0.067 0.32-0.1 0.4-0.1v0h1.12c0.2 0 0.3 0.14 0.3 0.42v0 7.96c0 0.093-0.037 0.157-0.11 0.19-0.073 0.033-0.233 0.05-0.48 0.05v0c-0.047 0-0.173-0.003-0.38-0.01-0.2-0.007-0.327-0.053-0.38-0.14v0c-0.033-0.047-0.093-0.143-0.18-0.29-0.087-0.147-0.183-0.297-0.29-0.45-0.107-0.153-0.207-0.3-0.3-0.44-0.087-0.14-0.137-0.233-0.15-0.28v0c-0.62-1.22-1.297-2.25-2.03-3.09-0.733-0.84-1.543-1.52-2.43-2.04-0.887-0.52-1.85-0.897-2.89-1.13-1.047-0.24-2.18-0.36-3.4-0.36v0c-1.547 0-2.917 0.18-4.11 0.54-1.193 0.36-2.24 0.863-3.14 1.51-0.893 0.653-1.647 1.437-2.26 2.35-0.607 0.913-1.1 1.91-1.48 2.99-0.387 1.08-0.667 2.237-0.84 3.47-0.167 1.227-0.25 2.49-0.25 3.79v0c0 1.387 0.097 2.76 0.29 4.12 0.193 1.353 0.51 2.647 0.95 3.88 0.44 1.227 1.007 2.367 1.7 3.42 0.693 1.047 1.527 1.957 2.5 2.73 0.98 0.773 2.12 1.38 3.42 1.82 1.3 0.44 2.773 0.66 4.42 0.66v0c1.387 0 2.677-0.207 3.87-0.62 1.193-0.42 2.287-0.983 3.28-1.69 0.993-0.707 1.877-1.52 2.65-2.44 0.773-0.92 1.437-1.883 1.99-2.89v0c0.033-0.087 0.07-0.133 0.11-0.14 0.04-0.007 0.1-0.01 0.18-0.01v0h1.25c0.047 0 0.1 0.02 0.16 0.06 0.053 0.04 0.08 0.127 0.08 0.26v0c0 0.047-0.037 0.173-0.11 0.38-0.073 0.2-0.15 0.373-0.23 0.52v0l-3.37 7.42c-0.033 0.053-0.08 0.093-0.14 0.12-0.067 0.033-0.123 0.05-0.17 0.05v0c-0.393 0-0.667-0.03-0.82-0.09-0.153-0.067-0.313-0.1-0.48-0.1v0c-0.487 0-1.133 0.083-1.94 0.25-0.807 0.173-1.677 0.357-2.61 0.55-0.94 0.2-1.883 0.383-2.83 0.55-0.953 0.173-1.803 0.26-2.55 0.26v0c-1.713 0-3.377-0.187-4.99-0.56-1.607-0.373-3.12-0.917-4.54-1.63-1.413-0.707-2.707-1.577-3.88-2.61-1.173-1.033-2.183-2.2-3.03-3.5-0.84-1.3-1.493-2.737-1.96-4.31-0.467-1.573-0.7-3.253-0.7-5.04zM56.18 34.35v-7.3c0-0.1-0.027-0.18-0.08-0.24v0l-9.98-15.97c-0.28-0.44-0.577-0.883-0.89-1.33-0.32-0.447-0.67-0.87-1.05-1.27-0.387-0.4-0.803-0.75-1.25-1.05-0.447-0.3-0.93-0.517-1.45-0.65v0c-0.08-0.013-0.21-0.04-0.39-0.08-0.18-0.04-0.367-0.077-0.56-0.11-0.2-0.033-0.387-0.067-0.56-0.1-0.18-0.033-0.31-0.057-0.39-0.07v0c-0.167-0.02-0.323-0.123-0.47-0.31-0.147-0.187-0.22-0.353-0.22-0.5v0c0-0.033 0.003-0.09 0.01-0.17 0.013-0.08 0.03-0.157 0.05-0.23 0.027-0.073 0.063-0.14 0.11-0.2 0.053-0.053 0.12-0.08 0.2-0.08v0h16.57c0.18 0 0.297 0.08 0.35 0.24 0.047 0.16 0.07 0.307 0.07 0.44v0c0 0.16-0.013 0.33-0.04 0.51-0.02 0.18-0.113 0.27-0.28 0.27v0c-0.44 0.033-0.853 0.067-1.24 0.1-0.393 0.033-0.727 0.11-1 0.23-0.28 0.12-0.5 0.303-0.66 0.55-0.167 0.247-0.25 0.59-0.25 1.03v0c0 0.387 0.1 0.737 0.3 1.05v0l7.44 11.96c0.18 0.273 0.3 0.443 0.36 0.51 0.053 0.067 0.147 0.1 0.28 0.1v0c0.113 0 0.213-0.067 0.3-0.2 0.093-0.127 0.203-0.297 0.33-0.51v0l5.89-9.99c0.227-0.373 0.457-0.787 0.69-1.24 0.24-0.453 0.36-0.917 0.36-1.39v0c0-0.46-0.063-0.823-0.19-1.09-0.12-0.267-0.303-0.473-0.55-0.62-0.24-0.147-0.537-0.253-0.89-0.32-0.347-0.067-0.75-0.123-1.21-0.17v0c-0.173-0.013-0.277-0.11-0.31-0.29-0.033-0.18-0.05-0.343-0.05-0.49v0c0-0.113 0.02-0.257 0.06-0.43 0.04-0.167 0.157-0.25 0.35-0.25v0h12.28c0.133 0 0.223 0.093 0.27 0.28 0.047 0.187 0.07 0.32 0.07 0.4v0c0 0.16-0.05 0.297-0.15 0.41-0.107 0.12-0.237 0.217-0.39 0.29-0.16 0.073-0.323 0.13-0.49 0.17-0.173 0.04-0.333 0.077-0.48 0.11v0c-0.813 0.173-1.517 0.47-2.11 0.89-0.593 0.413-1.177 0.93-1.75 1.55v0c-0.08 0.08-0.197 0.21-0.35 0.39-0.153 0.18-0.24 0.287-0.26 0.32v0l-9.45 16.23v8.62c0 0.973 0.253 1.73 0.76 2.27 0.507 0.54 1.403 0.873 2.69 1v0c0.18 0.02 0.407 0.03 0.68 0.03 0.28 0 0.517 0 0.71 0v0c0.08 0 0.133 0.023 0.16 0.07 0.02 0.047 0.03 0.087 0.03 0.12v0 1.07c0 0.033-0.01 0.077-0.03 0.13-0.027 0.047-0.08 0.07-0.16 0.07v0h-16.63c-0.08 0-0.133-0.023-0.16-0.07-0.02-0.053-0.03-0.097-0.03-0.13v0-1.07c0-0.033 0.01-0.073 0.03-0.12 0.027-0.047 0.08-0.07 0.16-0.07v0c0.18 0 0.413 0 0.7 0 0.287 0 0.517-0.01 0.69-0.03v0c1.287-0.127 2.183-0.46 2.69-1 0.507-0.54 0.76-1.297 0.76-2.27zM78.93 38.91v-0.95c0-0.033 0.013-0.073 0.04-0.12 0.02-0.047 0.073-0.07 0.16-0.07v0c0.307 0 0.697-0.017 1.17-0.05 0.473-0.033 0.973-0.093 1.5-0.18 0.527-0.093 1.06-0.22 1.6-0.38 0.533-0.167 1.013-0.37 1.44-0.61 0.42-0.247 0.767-0.54 1.04-0.88 0.267-0.347 0.4-0.753 0.4-1.22v0-25.03c0-0.827-0.123-1.473-0.37-1.94-0.24-0.46-0.57-0.807-0.99-1.04-0.413-0.227-0.897-0.367-1.45-0.42-0.553-0.06-1.147-0.09-1.78-0.09v0h-1.39c-0.08 0-0.133-0.023-0.16-0.07-0.027-0.053-0.04-0.093-0.04-0.12v0-0.98c0-0.033 0.013-0.073 0.04-0.12 0.027-0.053 0.08-0.08 0.16-0.08v0c0.013 0 0.097-0.003 0.25-0.01 0.16-0.007 0.433-0.01 0.82-0.01 0.393 0 0.923-0.003 1.59-0.01 0.667-0.007 1.537-0.01 2.61-0.01v0c0.227 0 0.623-0.01 1.19-0.03 0.56-0.013 1.2-0.03 1.92-0.05 0.727-0.013 1.493-0.033 2.3-0.06 0.807-0.027 1.57-0.047 2.29-0.06 0.727-0.013 1.373-0.03 1.94-0.05 0.573-0.013 0.99-0.02 1.25-0.02v0c0.833 0 1.757 0.027 2.77 0.08 1.02 0.06 2.047 0.187 3.08 0.38 1.033 0.193 2.037 0.473 3.01 0.84 0.98 0.367 1.847 0.857 2.6 1.47 0.76 0.607 1.367 1.36 1.82 2.26 0.453 0.893 0.68 1.967 0.68 3.22v0c0 0.747-0.117 1.43-0.35 2.05-0.233 0.62-0.533 1.17-0.9 1.65-0.367 0.48-0.763 0.893-1.19 1.24-0.42 0.353-0.813 0.647-1.18 0.88-0.367 0.24-0.683 0.417-0.95 0.53-0.273 0.113-0.423 0.177-0.45 0.19v0c0.927 0.52 1.807 1.09 2.64 1.71 0.84 0.62 1.577 1.317 2.21 2.09 0.64 0.773 1.143 1.623 1.51 2.55 0.36 0.927 0.54 1.953 0.54 3.08v0c0 1.313-0.177 2.477-0.53 3.49-0.36 1.007-0.833 1.883-1.42 2.63-0.587 0.753-1.257 1.387-2.01 1.9-0.76 0.507-1.537 0.93-2.33 1.27-0.8 0.333-1.593 0.593-2.38 0.78-0.793 0.187-1.517 0.32-2.17 0.4-0.647 0.08-1.193 0.13-1.64 0.15-0.447 0.013-0.737 0.02-0.87 0.02v0h-19.82c-0.087 0-0.14-0.023-0.16-0.07-0.027-0.053-0.04-0.097-0.04-0.13zM93.36 20.82v11.8c0 0.633 0.163 1.207 0.49 1.72 0.327 0.513 0.74 0.953 1.24 1.32 0.507 0.36 1.073 0.643 1.7 0.85 0.627 0.207 1.25 0.31 1.87 0.31v0c1.04 0 1.96-0.197 2.76-0.59 0.793-0.393 1.45-0.94 1.97-1.64 0.52-0.7 0.917-1.533 1.19-2.5 0.267-0.967 0.4-2.03 0.4-3.19v0c0-1.38-0.21-2.59-0.63-3.63-0.427-1.047-1.023-1.92-1.79-2.62-0.76-0.693-1.67-1.217-2.73-1.57-1.06-0.347-2.223-0.52-3.49-0.52v0h-2.66c-0.167 0-0.26 0.027-0.28 0.08-0.027 0.06-0.04 0.12-0.04 0.18zM93.87 18.31h3.81c0.78 0 1.51-0.143 2.19-0.43 0.673-0.287 1.257-0.68 1.75-1.18 0.5-0.507 0.893-1.107 1.18-1.8 0.28-0.687 0.42-1.437 0.42-2.25v0c0-1.24-0.15-2.263-0.45-3.07-0.3-0.807-0.743-1.447-1.33-1.92-0.587-0.467-1.313-0.793-2.18-0.98-0.873-0.187-1.88-0.28-3.02-0.28v0c-0.247 0-0.537 0.013-0.87 0.04-0.333 0.033-0.653 0.097-0.96 0.19-0.307 0.087-0.567 0.213-0.78 0.38-0.213 0.16-0.32 0.37-0.32 0.63v0 10.21c0 0.047 0.023 0.133 0.07 0.26 0.053 0.133 0.217 0.2 0.49 0.2zM115.04 38.57v-0.71c0-0.013 0.007-0.047 0.02-0.1 0.02-0.06 0.077-0.09 0.17-0.09v0h0.54c0.687-0.047 1.387-0.077 2.1-0.09 0.72-0.007 1.37-0.093 1.95-0.26 0.587-0.173 1.067-0.477 1.44-0.91 0.38-0.427 0.57-1.097 0.57-2.01v0-25c0-0.633-0.13-1.15-0.39-1.55-0.267-0.4-0.61-0.723-1.03-0.97-0.42-0.24-0.9-0.423-1.44-0.55-0.54-0.12-1.087-0.22-1.64-0.3v0h-0.51c-0.08 0-0.133-0.023-0.16-0.07-0.02-0.053-0.03-0.097-0.03-0.13v0-0.95c0-0.033 0.01-0.073 0.03-0.12 0.027-0.047 0.08-0.07 0.16-0.07v0h24.32c0.293 0 0.503 0.05 0.63 0.15 0.133 0.107 0.217 0.34 0.25 0.7v0l0.44 7.81c0 0.087-0.07 0.15-0.21 0.19-0.14 0.04-0.267 0.06-0.38 0.06v0c-0.133 0-0.263-0.017-0.39-0.05-0.133-0.033-0.223-0.083-0.27-0.15v0c-0.113-0.16-0.193-0.4-0.24-0.72-0.053-0.313-0.107-0.667-0.16-1.06-0.06-0.393-0.143-0.8-0.25-1.22-0.1-0.427-0.257-0.817-0.47-1.17-0.213-0.36-0.503-0.673-0.87-0.94-0.367-0.273-0.833-0.457-1.4-0.55v0h-8.72c-0.213 0-0.32 0.107-0.32 0.32v0 11.64c0 0.16 0.083 0.24 0.25 0.24v0h6.98c0.407 0 0.81-0.05 1.21-0.15 0.4-0.107 0.75-0.3 1.05-0.58 0.3-0.273 0.543-0.66 0.73-1.16 0.187-0.493 0.28-1.13 0.28-1.91v0c0-0.133 0.067-0.2 0.2-0.2v0h0.95c0.133 0 0.2 0.067 0.2 0.2v0 11.18c0 0.08-0.027 0.133-0.08 0.16-0.047 0.02-0.087 0.03-0.12 0.03v0h-0.95c-0.08 0-0.133-0.023-0.16-0.07-0.027-0.047-0.04-0.087-0.04-0.12v0c0-0.913-0.093-1.65-0.28-2.21-0.187-0.56-0.433-1-0.74-1.32-0.313-0.32-0.67-0.53-1.07-0.63-0.393-0.107-0.81-0.16-1.25-0.16v0h-6.91c-0.167 0-0.25 0.08-0.25 0.24v0 10.67c0 0.473 0.073 0.853 0.22 1.14 0.147 0.28 0.347 0.493 0.6 0.64 0.253 0.147 0.543 0.243 0.87 0.29 0.327 0.053 0.667 0.08 1.02 0.08v0h6.67c0.947 0 1.737-0.217 2.37-0.65 0.633-0.433 1.147-0.957 1.54-1.57 0.387-0.62 0.673-1.263 0.86-1.93 0.187-0.667 0.307-1.237 0.36-1.71v0c0.027-0.213 0.13-0.38 0.31-0.5 0.18-0.12 0.383-0.18 0.61-0.18v0c0.087 0 0.187 0.03 0.3 0.09 0.113 0.067 0.17 0.14 0.17 0.22v0l-0.81 8.94c-0.033 0.08-0.077 0.157-0.13 0.23-0.06 0.073-0.13 0.11-0.21 0.11v0h-28.3c-0.093 0-0.15-0.03-0.17-0.09-0.013-0.053-0.02-0.09-0.02-0.11v0zM147.9 38.13v-0.29c0-0.013 0.007-0.05 0.02-0.11 0.02-0.053 0.08-0.08 0.18-0.08v0c0.093 0 0.247-0.017 0.46-0.05 0.213-0.033 0.433-0.067 0.66-0.1 0.227-0.033 0.437-0.07 0.63-0.11 0.2-0.04 0.34-0.07 0.42-0.09v0c0.927-0.207 1.573-0.55 1.94-1.03 0.367-0.48 0.55-1.08 0.55-1.8v0-24.8c0-0.813-0.17-1.457-0.51-1.93-0.347-0.473-0.743-0.827-1.19-1.06-0.447-0.24-0.877-0.387-1.29-0.44-0.413-0.06-0.693-0.09-0.84-0.09v0h-0.93c-0.08 0-0.133-0.023-0.16-0.07-0.027-0.053-0.04-0.093-0.04-0.12v0-1.08c0-0.033 0.01-0.07 0.03-0.11 0.013-0.04 0.07-0.067 0.17-0.08v0c0.013 0 0.05 0 0.11 0 0.053 0 0.17-0.007 0.35-0.02 0.18-0.007 0.44-0.013 0.78-0.02 0.347-0.007 0.827-0.02 1.44-0.04v0c0.9-0.013 1.857-0.037 2.87-0.07 1.02-0.033 2.05-0.067 3.09-0.1 1.04-0.033 2.07-0.06 3.09-0.08 1.013-0.027 1.97-0.04 2.87-0.04v0h2.46c1.287 0 2.597 0.22 3.93 0.66 1.34 0.44 2.55 1.087 3.63 1.94 1.08 0.853 1.967 1.917 2.66 3.19 0.693 1.267 1.04 2.73 1.04 4.39v0c0 1.073-0.147 2.03-0.44 2.87-0.293 0.84-0.697 1.58-1.21 2.22-0.513 0.647-1.123 1.213-1.83 1.7-0.707 0.487-1.477 0.917-2.31 1.29v0l7.4 11.72c0.633 1.007 1.373 1.923 2.22 2.75 0.847 0.82 1.833 1.393 2.96 1.72v0c0.127 0.033 0.203 0.077 0.23 0.13 0.02 0.06 0.03 0.13 0.03 0.21v0c0 0.247-0.063 0.41-0.19 0.49-0.133 0.08-0.337 0.12-0.61 0.12v0c-0.687 0-1.463-0.043-2.33-0.13-0.873-0.093-1.75-0.24-2.63-0.44-0.88-0.207-1.713-0.473-2.5-0.8-0.787-0.327-1.45-0.733-1.99-1.22v0c-0.52-0.453-1.05-1.03-1.59-1.73-0.533-0.7-1.073-1.453-1.62-2.26-0.547-0.807-1.083-1.643-1.61-2.51-0.533-0.873-1.047-1.727-1.54-2.56-0.493-0.827-0.97-1.597-1.43-2.31-0.453-0.72-0.867-1.333-1.24-1.84v0l-3.81-0.26c-0.02 0-0.087 0-0.2 0-0.113 0-0.193 0.013-0.24 0.04v0c-0.047 0.033-0.08 0.067-0.1 0.1-0.013 0.033-0.02 0.1-0.02 0.2v0 10.4c0 0.44 0.057 0.823 0.17 1.15 0.113 0.32 0.303 0.6 0.57 0.84 0.267 0.233 0.617 0.423 1.05 0.57 0.433 0.147 0.96 0.26 1.58 0.34v0c0.093 0.02 0.233 0.047 0.42 0.08 0.187 0.033 0.39 0.07 0.61 0.11 0.22 0.04 0.437 0.077 0.65 0.11 0.213 0.033 0.393 0.05 0.54 0.05v0c0.093 0 0.15 0.023 0.17 0.07 0.013 0.047 0.02 0.087 0.02 0.12v0 1.07c0 0.033-0.01 0.077-0.03 0.13-0.027 0.047-0.08 0.07-0.16 0.07v0h-17.21c-0.087 0-0.14-0.113-0.16-0.34-0.027-0.227-0.04-0.44-0.04-0.64zM159.72 20.48l0.05 0.73c0.013 0.133 0.05 0.253 0.11 0.36 0.053 0.107 0.17 0.167 0.35 0.18v0c0.147 0.02 0.367 0.05 0.66 0.09 0.293 0.04 0.7 0.06 1.22 0.06v0c1.433 0 2.613-0.22 3.54-0.66 0.927-0.44 1.66-1.03 2.2-1.77 0.533-0.74 0.903-1.59 1.11-2.55 0.2-0.96 0.3-1.963 0.3-3.01v0c0-1.087-0.17-2.12-0.51-3.1-0.34-0.973-0.817-1.817-1.43-2.53-0.607-0.72-1.34-1.29-2.2-1.71-0.853-0.427-1.793-0.64-2.82-0.64v0c-0.227 0-0.403 0.003-0.53 0.01-0.133 0.013-0.26 0.023-0.38 0.03-0.12 0.007-0.26 0.013-0.42 0.02-0.153 0.007-0.367 0.02-0.64 0.04v0c-0.1 0-0.227 0.02-0.38 0.06-0.153 0.04-0.23 0.15-0.23 0.33v0z" fill="#000000" fill-rule="nonzero" stroke="none" stroke-width="1" stroke-linecap="butt" stroke-linejoin="miter" stroke-miterlimit="10" stroke-dasharray="" stroke-dashoffset="0" font-family="none" font-weight="none" font-size="none" text-anchor="none" style="mix-blend-mode: normal" data-fill-palette-color="accent" opacity="1"></path><path xmlns="http://www.w3.org/2000/svg" d="M4.88 77.32l-1.56 0.24c-0.213 0-0.343-0.17-0.39-0.51v0c-0.18-1.533-0.32-2.723-0.42-3.57-0.093-0.847-0.16-1.48-0.2-1.9-0.04-0.427-0.067-0.7-0.08-0.82-0.007-0.12-0.01-0.203-0.01-0.25v0c0-0.18 0.083-0.377 0.25-0.59 0.16-0.213 0.353-0.32 0.58-0.32v0c0.167 0 0.343 0.097 0.53 0.29 0.187 0.2 0.363 0.43 0.53 0.69 0.173 0.26 0.32 0.52 0.44 0.78 0.127 0.26 0.207 0.447 0.24 0.56v0c0.42 0.893 0.877 1.647 1.37 2.26 0.5 0.607 1.067 1.093 1.7 1.46 0.633 0.367 1.35 0.633 2.15 0.8 0.8 0.16 1.71 0.24 2.73 0.24v0c1.747 0 3.103-0.413 4.07-1.24 0.967-0.833 1.45-2.17 1.45-4.01v0c0-1.053-0.23-2.013-0.69-2.88-0.467-0.86-1.073-1.66-1.82-2.4-0.753-0.74-1.61-1.443-2.57-2.11-0.96-0.673-1.943-1.35-2.95-2.03-1.007-0.687-1.99-1.4-2.95-2.14-0.967-0.74-1.823-1.557-2.57-2.45-0.747-0.893-1.353-1.887-1.82-2.98-0.46-1.093-0.69-2.323-0.69-3.69v0c0-0.827 0.15-1.6 0.45-2.32 0.3-0.713 0.703-1.363 1.21-1.95 0.5-0.587 1.09-1.11 1.77-1.57 0.673-0.467 1.393-0.857 2.16-1.17 0.767-0.32 1.543-0.563 2.33-0.73 0.787-0.16 1.557-0.24 2.31-0.24v0c0.6 0 1.207 0.053 1.82 0.16 0.607 0.107 1.207 0.233 1.8 0.38 0.593 0.147 1.193 0.303 1.8 0.47 0.6 0.173 1.193 0.333 1.78 0.48v0l1.61-0.15c0.147 0 0.24 0.063 0.28 0.19 0.04 0.12 0.07 0.23 0.09 0.33v0l0.7 5.73c0 0.087-0.103 0.143-0.31 0.17-0.213 0.033-0.377 0.05-0.49 0.05v0c-0.1 0-0.247-0.01-0.44-0.03-0.193-0.027-0.307-0.057-0.34-0.09v0c-0.053-0.047-0.117-0.147-0.19-0.3-0.073-0.16-0.15-0.333-0.23-0.52-0.08-0.187-0.163-0.377-0.25-0.57-0.093-0.193-0.187-0.363-0.28-0.51v0c-0.787-1.207-1.79-2.107-3.01-2.7-1.22-0.593-2.563-0.89-4.03-0.89v0c-0.633 0-1.227 0.073-1.78 0.22-0.553 0.147-1.033 0.377-1.44 0.69-0.407 0.32-0.727 0.723-0.96 1.21-0.24 0.487-0.36 1.073-0.36 1.76v0c0 0.993 0.233 1.893 0.7 2.7 0.46 0.807 1.07 1.563 1.83 2.27 0.76 0.707 1.623 1.393 2.59 2.06 0.967 0.667 1.95 1.347 2.95 2.04 1 0.693 1.987 1.43 2.96 2.21 0.967 0.78 1.827 1.643 2.58 2.59 0.76 0.94 1.373 1.99 1.84 3.15 0.46 1.153 0.69 2.453 0.69 3.9v0c0 0.96-0.167 1.857-0.5 2.69-0.333 0.827-0.783 1.58-1.35 2.26-0.573 0.673-1.243 1.27-2.01 1.79-0.76 0.52-1.577 0.957-2.45 1.31-0.873 0.347-1.77 0.61-2.69 0.79-0.92 0.18-1.817 0.27-2.69 0.27v0c-1.107 0-2.073-0.08-2.9-0.24-0.82-0.167-1.527-0.35-2.12-0.55-0.593-0.207-1.093-0.39-1.5-0.55-0.407-0.167-0.75-0.25-1.03-0.25v0c-0.093 0-0.167 0.01-0.22 0.03zM26.71 77.68v-0.71c0-0.013 0.007-0.047 0.02-0.1 0.02-0.06 0.077-0.09 0.17-0.09v0h0.54c0.687-0.047 1.387-0.077 2.1-0.09 0.72-0.007 1.37-0.093 1.95-0.26 0.587-0.173 1.067-0.477 1.44-0.91 0.38-0.427 0.57-1.097 0.57-2.01v0-25c0-0.633-0.13-1.15-0.39-1.55-0.267-0.4-0.61-0.723-1.03-0.97-0.42-0.24-0.9-0.423-1.44-0.55-0.54-0.12-1.087-0.22-1.64-0.3v0h-0.51c-0.08 0-0.133-0.023-0.16-0.07-0.02-0.053-0.03-0.097-0.03-0.13v0-0.95c0-0.033 0.01-0.073 0.03-0.12 0.027-0.047 0.08-0.07 0.16-0.07v0h24.32c0.293 0 0.503 0.05 0.63 0.15 0.133 0.107 0.217 0.34 0.25 0.7v0l0.44 7.81c0 0.087-0.07 0.15-0.21 0.19-0.14 0.04-0.267 0.06-0.38 0.06v0c-0.133 0-0.263-0.017-0.39-0.05-0.133-0.033-0.223-0.083-0.27-0.15v0c-0.113-0.16-0.193-0.4-0.24-0.72-0.053-0.313-0.107-0.667-0.16-1.06-0.06-0.393-0.143-0.8-0.25-1.22-0.1-0.427-0.257-0.817-0.47-1.17-0.213-0.36-0.503-0.673-0.87-0.94-0.367-0.273-0.833-0.457-1.4-0.55v0h-8.72c-0.213 0-0.32 0.107-0.32 0.32v0 11.64c0 0.16 0.083 0.24 0.25 0.24v0h6.98c0.407 0 0.81-0.05 1.21-0.15 0.4-0.107 0.75-0.3 1.05-0.58 0.3-0.273 0.543-0.66 0.73-1.16 0.187-0.493 0.28-1.13 0.28-1.91v0c0-0.133 0.067-0.2 0.2-0.2v0h0.95c0.127 0 0.19 0.067 0.19 0.2v0 11.18c0 0.08-0.023 0.133-0.07 0.16-0.047 0.02-0.087 0.03-0.12 0.03v0h-0.95c-0.08 0-0.133-0.023-0.16-0.07-0.027-0.047-0.04-0.087-0.04-0.12v0c0-0.913-0.093-1.65-0.28-2.21-0.187-0.56-0.433-1-0.74-1.32-0.313-0.32-0.67-0.53-1.07-0.63-0.393-0.107-0.81-0.16-1.25-0.16v0h-6.91c-0.167 0-0.25 0.08-0.25 0.24v0 10.67c0 0.473 0.073 0.853 0.22 1.14 0.147 0.28 0.347 0.493 0.6 0.64 0.253 0.147 0.543 0.243 0.87 0.29 0.327 0.053 0.667 0.08 1.02 0.08v0h6.67c0.947 0 1.737-0.217 2.37-0.65 0.633-0.433 1.147-0.957 1.54-1.57 0.387-0.62 0.673-1.263 0.86-1.93 0.187-0.667 0.307-1.237 0.36-1.71v0c0.027-0.213 0.13-0.38 0.31-0.5 0.18-0.12 0.383-0.18 0.61-0.18v0c0.087 0 0.187 0.03 0.3 0.09 0.113 0.067 0.17 0.14 0.17 0.22v0l-0.81 8.94c-0.033 0.08-0.077 0.157-0.13 0.23-0.06 0.073-0.13 0.11-0.21 0.11v0h-28.3c-0.093 0-0.15-0.03-0.17-0.09-0.013-0.053-0.02-0.09-0.02-0.11v0zM61.06 61.23v0c0-1.827 0.227-3.55 0.68-5.17 0.46-1.613 1.103-3.107 1.93-4.48 0.833-1.367 1.833-2.593 3-3.68 1.173-1.093 2.473-2.017 3.9-2.77 1.427-0.76 2.953-1.343 4.58-1.75 1.627-0.407 3.327-0.61 5.1-0.61v0c1.5 0 2.943 0.133 4.33 0.4 1.393 0.273 2.83 0.587 4.31 0.94v0c0.247 0.067 0.503 0.15 0.77 0.25 0.267 0.093 0.52 0.187 0.76 0.28 0.233 0.087 0.447 0.163 0.64 0.23 0.2 0.067 0.347 0.1 0.44 0.1v0c0.033 0 0.143-0.033 0.33-0.1 0.187-0.067 0.323-0.1 0.41-0.1v0h1.12c0.193 0 0.29 0.14 0.29 0.42v0 7.96c0 0.093-0.037 0.157-0.11 0.19-0.073 0.033-0.23 0.05-0.47 0.05v0c-0.053 0-0.18-0.003-0.38-0.01-0.207-0.007-0.333-0.053-0.38-0.14v0c-0.033-0.047-0.093-0.143-0.18-0.29-0.093-0.147-0.193-0.297-0.3-0.45-0.107-0.153-0.203-0.3-0.29-0.44-0.087-0.14-0.14-0.233-0.16-0.28v0c-0.62-1.22-1.293-2.25-2.02-3.09-0.733-0.84-1.543-1.52-2.43-2.04-0.887-0.52-1.853-0.897-2.9-1.13-1.04-0.24-2.17-0.36-3.39-0.36v0c-1.547 0-2.917 0.18-4.11 0.54-1.2 0.36-2.247 0.863-3.14 1.51-0.893 0.653-1.647 1.437-2.26 2.35-0.613 0.913-1.11 1.91-1.49 2.99-0.38 1.08-0.657 2.237-0.83 3.47-0.173 1.227-0.26 2.49-0.26 3.79v0c0 1.387 0.1 2.76 0.3 4.12 0.193 1.353 0.51 2.647 0.95 3.88 0.44 1.227 1.007 2.367 1.7 3.42 0.687 1.047 1.52 1.957 2.5 2.73 0.973 0.773 2.113 1.38 3.42 1.82 1.3 0.44 2.773 0.66 4.42 0.66v0c1.38 0 2.67-0.207 3.87-0.62 1.193-0.42 2.287-0.983 3.28-1.69 0.993-0.707 1.877-1.52 2.65-2.44 0.773-0.92 1.437-1.883 1.99-2.89v0c0.033-0.087 0.07-0.133 0.11-0.14 0.04-0.007 0.1-0.01 0.18-0.01v0h1.25c0.047 0 0.097 0.02 0.15 0.06 0.06 0.04 0.09 0.127 0.09 0.26v0c0 0.047-0.037 0.173-0.11 0.38-0.073 0.2-0.15 0.373-0.23 0.52v0l-3.37 7.42c-0.033 0.053-0.083 0.093-0.15 0.12-0.06 0.033-0.117 0.05-0.17 0.05v0c-0.387 0-0.66-0.03-0.82-0.09-0.153-0.067-0.31-0.1-0.47-0.1v0c-0.487 0-1.133 0.083-1.94 0.25-0.807 0.173-1.68 0.357-2.62 0.55-0.933 0.2-1.877 0.383-2.83 0.55-0.953 0.173-1.803 0.26-2.55 0.26v0c-1.707 0-3.367-0.187-4.98-0.56-1.613-0.373-3.127-0.917-4.54-1.63-1.413-0.707-2.707-1.577-3.88-2.61-1.173-1.033-2.183-2.2-3.03-3.5-0.847-1.3-1.5-2.737-1.96-4.31-0.467-1.573-0.7-3.253-0.7-5.04zM102.44 48.07v0c0-0.473-0.11-0.893-0.33-1.26-0.22-0.367-0.517-0.67-0.89-0.91-0.373-0.247-0.803-0.437-1.29-0.57-0.493-0.127-1.017-0.19-1.57-0.19v0c-0.127 0-0.19-0.067-0.19-0.2v0-0.95c0-0.127 0.057-0.19 0.17-0.19v0h15.43c0.08 0 0.133 0.023 0.16 0.07 0.02 0.047 0.03 0.087 0.03 0.12v0 0.95c0 0.033-0.01 0.077-0.03 0.13-0.027 0.047-0.08 0.07-0.16 0.07v0c-0.487 0-0.987 0.033-1.5 0.1-0.513 0.06-0.987 0.207-1.42 0.44-0.427 0.227-0.777 0.553-1.05 0.98-0.267 0.433-0.4 1.017-0.4 1.75v0 17.11c0 3.26 0.83 5.78 2.49 7.56 1.66 1.78 4.143 2.67 7.45 2.67v0c1.367 0 2.677-0.19 3.93-0.57 1.253-0.38 2.36-0.97 3.32-1.77 0.96-0.8 1.723-1.817 2.29-3.05 0.573-1.24 0.86-2.713 0.86-4.42v0-15.16c0-0.553-0.02-1.123-0.06-1.71-0.047-0.587-0.183-1.14-0.41-1.66-0.227-0.52-0.583-0.973-1.07-1.36-0.487-0.38-1.18-0.643-2.08-0.79v0c-0.407-0.067-0.743-0.103-1.01-0.11-0.267-0.007-0.443-0.01-0.53-0.01v0c-0.127 0-0.19-0.067-0.19-0.2v0-0.95c0-0.127 0.063-0.19 0.19-0.19v0h12.75c0.08 0 0.133 0.023 0.16 0.07 0.02 0.047 0.03 0.087 0.03 0.12v0 0.95c0 0.033-0.013 0.077-0.04 0.13-0.033 0.047-0.083 0.07-0.15 0.07v0c-0.587 0-1.103 0.043-1.55 0.13-0.447 0.093-0.783 0.187-1.01 0.28v0c-0.28 0.113-0.533 0.29-0.76 0.53-0.227 0.233-0.417 0.487-0.57 0.76-0.16 0.267-0.28 0.543-0.36 0.83-0.08 0.28-0.12 0.527-0.12 0.74v0 15.63c0 2.293-0.3 4.353-0.9 6.18-0.607 1.833-1.517 3.39-2.73 4.67-1.213 1.273-2.737 2.257-4.57 2.95-1.84 0.693-3.99 1.04-6.45 1.04v0c-1.173 0-2.38-0.09-3.62-0.27-1.247-0.18-2.46-0.463-3.64-0.85-1.18-0.393-2.293-0.9-3.34-1.52-1.04-0.62-1.95-1.36-2.73-2.22-0.78-0.86-1.397-1.853-1.85-2.98-0.46-1.12-0.69-2.39-0.69-3.81v0zM139.18 77.24v-0.29c0-0.013 0.01-0.05 0.03-0.11 0.013-0.053 0.07-0.08 0.17-0.08v0c0.1 0 0.253-0.017 0.46-0.05 0.213-0.033 0.433-0.067 0.66-0.1 0.227-0.033 0.44-0.07 0.64-0.11 0.193-0.04 0.33-0.07 0.41-0.09v0c0.927-0.207 1.573-0.55 1.94-1.03 0.367-0.48 0.55-1.08 0.55-1.8v0-24.8c0-0.813-0.17-1.457-0.51-1.93-0.34-0.473-0.733-0.827-1.18-1.06-0.453-0.24-0.887-0.387-1.3-0.44-0.413-0.06-0.693-0.09-0.84-0.09v0h-0.93c-0.08 0-0.133-0.023-0.16-0.07-0.02-0.053-0.03-0.093-0.03-0.12v0-1.08c0-0.033 0.007-0.07 0.02-0.11 0.02-0.04 0.077-0.067 0.17-0.08v0c0.02 0 0.057 0 0.11 0 0.06 0 0.18-0.007 0.36-0.02 0.173-0.007 0.433-0.013 0.78-0.02 0.34-0.007 0.82-0.02 1.44-0.04v0c0.893-0.013 1.85-0.037 2.87-0.07 1.013-0.033 2.04-0.067 3.08-0.1 1.047-0.033 2.077-0.06 3.09-0.08 1.02-0.027 1.977-0.04 2.87-0.04v0h2.47c1.287 0 2.597 0.22 3.93 0.66 1.333 0.44 2.54 1.087 3.62 1.94 1.087 0.853 1.973 1.917 2.66 3.19 0.693 1.267 1.04 2.73 1.04 4.39v0c0 1.073-0.147 2.03-0.44 2.87-0.293 0.84-0.697 1.58-1.21 2.22-0.507 0.647-1.117 1.213-1.83 1.7-0.707 0.487-1.473 0.917-2.3 1.29v0l7.39 11.72c0.64 1.007 1.383 1.923 2.23 2.75 0.847 0.82 1.83 1.393 2.95 1.72v0c0.127 0.033 0.203 0.077 0.23 0.13 0.027 0.06 0.04 0.13 0.04 0.21v0c0 0.247-0.067 0.41-0.2 0.49-0.127 0.08-0.33 0.12-0.61 0.12v0c-0.68 0-1.457-0.043-2.33-0.13-0.873-0.093-1.747-0.24-2.62-0.44-0.88-0.207-1.717-0.473-2.51-0.8-0.787-0.327-1.45-0.733-1.99-1.22v0c-0.52-0.453-1.047-1.03-1.58-1.73-0.54-0.7-1.083-1.453-1.63-2.26-0.54-0.807-1.077-1.643-1.61-2.51-0.527-0.873-1.04-1.727-1.54-2.56-0.493-0.827-0.967-1.597-1.42-2.31-0.46-0.72-0.877-1.333-1.25-1.84v0l-3.81-0.26c-0.013 0-0.077 0-0.19 0-0.113 0-0.197 0.013-0.25 0.04v0c-0.047 0.033-0.077 0.067-0.09 0.1-0.02 0.033-0.03 0.1-0.03 0.2v0 10.4c0 0.44 0.057 0.823 0.17 1.15 0.113 0.32 0.307 0.6 0.58 0.84 0.267 0.233 0.617 0.423 1.05 0.57 0.427 0.147 0.95 0.26 1.57 0.34v0c0.1 0.02 0.243 0.047 0.43 0.08 0.187 0.033 0.39 0.07 0.61 0.11 0.22 0.04 0.433 0.077 0.64 0.11 0.213 0.033 0.393 0.05 0.54 0.05v0c0.1 0 0.157 0.023 0.17 0.07 0.02 0.047 0.03 0.087 0.03 0.12v0 1.07c0 0.033-0.013 0.077-0.04 0.13-0.027 0.047-0.08 0.07-0.16 0.07v0h-17.21c-0.08 0-0.133-0.113-0.16-0.34-0.027-0.227-0.04-0.44-0.04-0.64zM151 59.59l0.05 0.73c0.013 0.133 0.05 0.253 0.11 0.36 0.06 0.107 0.177 0.167 0.35 0.18v0c0.147 0.02 0.367 0.05 0.66 0.09 0.293 0.04 0.7 0.06 1.22 0.06v0c1.433 0 2.613-0.22 3.54-0.66 0.933-0.44 1.667-1.03 2.2-1.77 0.54-0.74 0.91-1.59 1.11-2.55 0.207-0.96 0.31-1.963 0.31-3.01v0c0-1.087-0.173-2.12-0.52-3.1-0.34-0.973-0.813-1.817-1.42-2.53-0.613-0.72-1.347-1.29-2.2-1.71-0.853-0.427-1.793-0.64-2.82-0.64v0c-0.227 0-0.407 0.003-0.54 0.01-0.127 0.013-0.253 0.023-0.38 0.03-0.12 0.007-0.257 0.013-0.41 0.02-0.153 0.007-0.37 0.02-0.65 0.04v0c-0.1 0-0.227 0.02-0.38 0.06-0.153 0.04-0.23 0.15-0.23 0.33v0zM188.06 73.58v0c0 0.553 0.087 1.017 0.26 1.39 0.167 0.373 0.41 0.677 0.73 0.91 0.32 0.227 0.71 0.387 1.17 0.48 0.467 0.1 0.983 0.15 1.55 0.15v0c0.133 0 0.2 0.067 0.2 0.2v0 1.31c0 0.053-0.01 0.1-0.03 0.14-0.013 0.04-0.07 0.06-0.17 0.06v0h-14.43c-0.08 0-0.13-0.023-0.15-0.07-0.027-0.053-0.04-0.097-0.04-0.13v0-1.31c0-0.033 0.013-0.077 0.04-0.13 0.02-0.047 0.07-0.07 0.15-0.07v0c0.573 0 1.09-0.037 1.55-0.11 0.467-0.073 0.863-0.23 1.19-0.47 0.327-0.247 0.577-0.597 0.75-1.05 0.18-0.46 0.27-1.08 0.27-1.86v0-24.59c0-0.553-0.083-1.017-0.25-1.39-0.173-0.373-0.42-0.673-0.74-0.9-0.313-0.227-0.703-0.39-1.17-0.49-0.46-0.093-0.977-0.14-1.55-0.14v0c-0.127 0-0.19-0.067-0.19-0.2v0-1.32c0-0.127 0.063-0.19 0.19-0.19v0h14.43c0.08 0 0.133 0.023 0.16 0.07 0.027 0.047 0.04 0.087 0.04 0.12v0 1.32c0 0.033-0.013 0.073-0.04 0.12-0.027 0.053-0.08 0.08-0.16 0.08v0c-0.567 0-1.083 0.037-1.55 0.11-0.46 0.067-0.853 0.223-1.18 0.47-0.327 0.247-0.58 0.597-0.76 1.05-0.18 0.453-0.27 1.073-0.27 1.86v0zM209.06 47.53v0c0-0.34-0.07-0.53-0.21-0.57-0.14-0.04-0.307-0.077-0.5-0.11v0h-8.28c-0.6 0.127-1.07 0.367-1.41 0.72-0.347 0.347-0.617 0.757-0.81 1.23-0.193 0.473-0.34 0.983-0.44 1.53-0.093 0.54-0.2 1.063-0.32 1.57v0c-0.027 0.147-0.057 0.323-0.09 0.53-0.033 0.2-0.067 0.317-0.1 0.35v0c-0.033 0.047-0.09 0.07-0.17 0.07v0h-0.81c-0.093 0-0.14-0.03-0.14-0.09v0-0.81l0.9-8.35c0.033-0.18 0.107-0.35 0.22-0.51 0.113-0.167 0.293-0.25 0.54-0.25v0c0.113 0 0.223 0.033 0.33 0.1 0.1 0.067 0.2 0.143 0.3 0.23 0.1 0.093 0.193 0.18 0.28 0.26 0.093 0.08 0.187 0.137 0.28 0.17v0c0.2 0.08 0.383 0.133 0.55 0.16 0.173 0.027 0.367 0.04 0.58 0.04v0h25.58c0.213 0 0.407-0.013 0.58-0.04 0.167-0.027 0.347-0.08 0.54-0.16v0c0.1-0.033 0.197-0.09 0.29-0.17 0.087-0.08 0.18-0.167 0.28-0.26 0.093-0.087 0.193-0.163 0.3-0.23 0.107-0.067 0.217-0.1 0.33-0.1v0c0.247 0 0.427 0.083 0.54 0.25 0.113 0.16 0.187 0.33 0.22 0.51v0l0.9 8.35v0.81c0 0.06-0.05 0.09-0.15 0.09v0h-0.8c-0.08 0-0.137-0.023-0.17-0.07v0c-0.033-0.033-0.067-0.15-0.1-0.35-0.033-0.207-0.067-0.383-0.1-0.53v0c-0.113-0.507-0.217-1.03-0.31-1.57-0.1-0.547-0.247-1.057-0.44-1.53-0.2-0.473-0.47-0.883-0.81-1.23-0.34-0.353-0.813-0.593-1.42-0.72v0h-8.3c-0.193 0.033-0.36 0.07-0.5 0.11-0.133 0.04-0.2 0.23-0.2 0.57v0 25.93c0 0.487 0.12 0.923 0.36 1.31 0.247 0.38 0.577 0.717 0.99 1.01 0.413 0.293 0.903 0.53 1.47 0.71 0.56 0.18 1.157 0.3 1.79 0.36v0c0.18 0.02 0.407 0.03 0.68 0.03 0.28 0 0.517 0 0.71 0v0c0.08 0 0.133 0.023 0.16 0.07 0.027 0.047 0.04 0.087 0.04 0.12v0 0.95c0 0.033-0.013 0.077-0.04 0.13-0.027 0.047-0.08 0.07-0.16 0.07v0h-18.97c-0.08 0-0.133-0.023-0.16-0.07-0.02-0.053-0.03-0.097-0.03-0.13v0-0.95c0-0.033 0.01-0.073 0.03-0.12 0.027-0.047 0.08-0.07 0.16-0.07v0c0.18 0 0.413 0 0.7 0 0.28 0 0.51-0.01 0.69-0.03v0c0.64-0.06 1.24-0.18 1.8-0.36 0.56-0.18 1.047-0.417 1.46-0.71 0.42-0.293 0.75-0.63 0.99-1.01 0.247-0.387 0.37-0.823 0.37-1.31v0zM248.27 73.46v-7.3c0-0.1-0.027-0.18-0.08-0.24v0l-9.98-15.97c-0.28-0.44-0.577-0.883-0.89-1.33-0.32-0.447-0.67-0.87-1.05-1.27-0.387-0.4-0.803-0.75-1.25-1.05-0.447-0.3-0.93-0.517-1.45-0.65v0c-0.08-0.013-0.21-0.04-0.39-0.08-0.18-0.04-0.367-0.077-0.56-0.11-0.2-0.033-0.387-0.067-0.56-0.1-0.18-0.033-0.31-0.057-0.39-0.07v0c-0.167-0.02-0.323-0.123-0.47-0.31-0.147-0.187-0.22-0.353-0.22-0.5v0c0-0.033 0.003-0.09 0.01-0.17 0.013-0.08 0.03-0.157 0.05-0.23 0.027-0.073 0.063-0.14 0.11-0.2 0.053-0.053 0.12-0.08 0.2-0.08v0h16.57c0.18 0 0.297 0.08 0.35 0.24 0.047 0.16 0.07 0.307 0.07 0.44v0c0 0.16-0.013 0.33-0.04 0.51-0.02 0.18-0.113 0.27-0.28 0.27v0c-0.44 0.033-0.853 0.067-1.24 0.1-0.393 0.033-0.727 0.11-1 0.23-0.28 0.12-0.5 0.303-0.66 0.55-0.167 0.247-0.25 0.59-0.25 1.03v0c0 0.387 0.1 0.737 0.3 1.05v0l7.44 11.96c0.18 0.273 0.3 0.443 0.36 0.51 0.053 0.067 0.147 0.1 0.28 0.1v0c0.113 0 0.213-0.067 0.3-0.2 0.093-0.127 0.203-0.297 0.33-0.51v0l5.89-9.99c0.227-0.373 0.457-0.787 0.69-1.24 0.24-0.453 0.36-0.917 0.36-1.39v0c0-0.46-0.063-0.823-0.19-1.09-0.12-0.267-0.303-0.473-0.55-0.62-0.24-0.147-0.537-0.253-0.89-0.32-0.347-0.067-0.75-0.123-1.21-0.17v0c-0.18-0.013-0.283-0.11-0.31-0.29-0.033-0.18-0.05-0.343-0.05-0.49v0c0-0.113 0.02-0.257 0.06-0.43 0.04-0.167 0.157-0.25 0.35-0.25v0h12.28c0.133 0 0.223 0.093 0.27 0.28 0.047 0.187 0.07 0.32 0.07 0.4v0c0 0.16-0.05 0.297-0.15 0.41-0.107 0.12-0.24 0.217-0.4 0.29-0.153 0.073-0.313 0.13-0.48 0.17-0.173 0.04-0.333 0.077-0.48 0.11v0c-0.813 0.173-1.517 0.47-2.11 0.89-0.593 0.413-1.177 0.93-1.75 1.55v0c-0.08 0.08-0.197 0.21-0.35 0.39-0.153 0.18-0.24 0.287-0.26 0.32v0l-9.45 16.23v8.62c0 0.973 0.253 1.73 0.76 2.27 0.507 0.54 1.403 0.873 2.69 1v0c0.18 0.02 0.407 0.03 0.68 0.03 0.28 0 0.517 0 0.71 0v0c0.08 0 0.133 0.023 0.16 0.07 0.02 0.047 0.03 0.087 0.03 0.12v0 1.07c0 0.033-0.01 0.077-0.03 0.13-0.027 0.047-0.08 0.07-0.16 0.07v0h-16.63c-0.08 0-0.133-0.023-0.16-0.07-0.02-0.053-0.03-0.097-0.03-0.13v0-1.07c0-0.033 0.01-0.073 0.03-0.12 0.027-0.047 0.08-0.07 0.16-0.07v0c0.18 0 0.413 0 0.7 0 0.287 0 0.517-0.01 0.69-0.03v0c1.287-0.127 2.183-0.46 2.69-1 0.507-0.54 0.76-1.297 0.76-2.27z" fill="#000000" fill-rule="nonzero" stroke="none" stroke-width="1" stroke-linecap="butt" stroke-linejoin="miter" stroke-miterlimit="10" stroke-dasharray="" stroke-dashoffset="0" font-family="none" font-weight="none" font-size="none" text-anchor="none" style="mix-blend-mode: normal" data-fill-palette-color="primary" opacity="1"></path><path xmlns="http://www.w3.org/2000/svg" d="M2.56 100.34v0c0-1.827 0.23-3.55 0.69-5.17 0.453-1.613 1.097-3.107 1.93-4.48 0.827-1.367 1.827-2.593 3-3.68 1.173-1.093 2.47-2.017 3.89-2.77 1.427-0.76 2.953-1.343 4.58-1.75 1.627-0.407 3.327-0.61 5.1-0.61v0c1.5 0 2.947 0.133 4.34 0.4 1.387 0.273 2.823 0.587 4.31 0.94v0c0.24 0.067 0.493 0.15 0.76 0.25 0.273 0.093 0.527 0.187 0.76 0.28 0.24 0.087 0.457 0.163 0.65 0.23 0.193 0.067 0.34 0.1 0.44 0.1v0c0.033 0 0.143-0.033 0.33-0.1 0.187-0.067 0.32-0.1 0.4-0.1v0h1.12c0.2 0 0.3 0.14 0.3 0.42v0 7.96c0 0.093-0.037 0.157-0.11 0.19-0.073 0.033-0.233 0.05-0.48 0.05v0c-0.047 0-0.173-0.003-0.38-0.01-0.2-0.007-0.327-0.053-0.38-0.14v0c-0.033-0.047-0.093-0.143-0.18-0.29-0.087-0.147-0.183-0.297-0.29-0.45-0.107-0.153-0.207-0.3-0.3-0.44-0.087-0.14-0.137-0.233-0.15-0.28v0c-0.62-1.22-1.297-2.25-2.03-3.09-0.733-0.84-1.543-1.52-2.43-2.04-0.887-0.52-1.85-0.897-2.89-1.13-1.047-0.24-2.18-0.36-3.4-0.36v0c-1.547 0-2.917 0.18-4.11 0.54-1.193 0.36-2.24 0.863-3.14 1.51-0.893 0.653-1.647 1.437-2.26 2.35-0.607 0.913-1.1 1.91-1.48 2.99-0.387 1.08-0.667 2.237-0.84 3.47-0.167 1.227-0.25 2.49-0.25 3.79v0c0 1.387 0.097 2.76 0.29 4.12 0.193 1.353 0.51 2.647 0.95 3.88 0.44 1.227 1.007 2.367 1.7 3.42 0.693 1.047 1.527 1.957 2.5 2.73 0.98 0.773 2.12 1.38 3.42 1.82 1.3 0.44 2.773 0.66 4.42 0.66v0c1.387 0 2.677-0.207 3.87-0.62 1.193-0.42 2.287-0.983 3.28-1.69 0.993-0.707 1.877-1.52 2.65-2.44 0.773-0.92 1.437-1.883 1.99-2.89v0c0.033-0.087 0.07-0.133 0.11-0.14 0.04-0.007 0.1-0.01 0.18-0.01v0h1.25c0.047 0 0.1 0.02 0.16 0.06 0.053 0.04 0.08 0.127 0.08 0.26v0c0 0.047-0.037 0.173-0.11 0.38-0.073 0.2-0.15 0.373-0.23 0.52v0l-3.37 7.42c-0.033 0.053-0.08 0.093-0.14 0.12-0.067 0.033-0.123 0.05-0.17 0.05v0c-0.393 0-0.667-0.03-0.82-0.09-0.153-0.067-0.313-0.1-0.48-0.1v0c-0.487 0-1.133 0.083-1.94 0.25-0.807 0.173-1.677 0.357-2.61 0.55-0.94 0.2-1.883 0.383-2.83 0.55-0.953 0.173-1.803 0.26-2.55 0.26v0c-1.713 0-3.377-0.187-4.99-0.56-1.607-0.373-3.12-0.917-4.54-1.63-1.413-0.707-2.707-1.577-3.88-2.61-1.173-1.033-2.183-2.2-3.03-3.5-0.84-1.3-1.493-2.737-1.96-4.31-0.467-1.573-0.7-3.253-0.7-5.04zM38.96 116.79v-0.71c0-0.013 0.01-0.047 0.03-0.1 0.013-0.06 0.07-0.09 0.17-0.09v0h0.54c0.68-0.047 1.38-0.077 2.1-0.09 0.713-0.007 1.363-0.093 1.95-0.26 0.587-0.173 1.067-0.477 1.44-0.91 0.373-0.427 0.56-1.097 0.56-2.01v0-25c0-0.633-0.13-1.15-0.39-1.55-0.26-0.4-0.6-0.723-1.02-0.97-0.427-0.24-0.907-0.423-1.44-0.55-0.54-0.12-1.087-0.22-1.64-0.3v0h-0.51c-0.08 0-0.133-0.023-0.16-0.07-0.027-0.053-0.04-0.097-0.04-0.13v0-0.95c0-0.033 0.013-0.073 0.04-0.12 0.027-0.047 0.08-0.07 0.16-0.07v0h24.31c0.293 0 0.507 0.05 0.64 0.15 0.127 0.107 0.207 0.34 0.24 0.7v0l0.44 7.81c0 0.087-0.07 0.15-0.21 0.19-0.133 0.04-0.257 0.06-0.37 0.06v0c-0.133 0-0.263-0.017-0.39-0.05-0.133-0.033-0.223-0.083-0.27-0.15v0c-0.113-0.16-0.197-0.4-0.25-0.72-0.047-0.313-0.1-0.667-0.16-1.06-0.053-0.393-0.133-0.8-0.24-1.22-0.107-0.427-0.267-0.817-0.48-1.17-0.207-0.36-0.493-0.673-0.86-0.94-0.367-0.273-0.837-0.457-1.41-0.55v0h-8.71c-0.213 0-0.32 0.107-0.32 0.32v0 11.64c0 0.16 0.08 0.24 0.24 0.24v0h6.99c0.407 0 0.81-0.05 1.21-0.15 0.393-0.107 0.74-0.3 1.04-0.58 0.307-0.273 0.553-0.66 0.74-1.16 0.187-0.493 0.28-1.13 0.28-1.91v0c0-0.133 0.063-0.2 0.19-0.2v0h0.96c0.127 0 0.19 0.067 0.19 0.2v0 11.18c0 0.08-0.023 0.133-0.07 0.16-0.053 0.02-0.093 0.03-0.12 0.03v0h-0.96c-0.08 0-0.133-0.023-0.16-0.07-0.02-0.047-0.03-0.087-0.03-0.12v0c0-0.913-0.093-1.65-0.28-2.21-0.187-0.56-0.437-1-0.75-1.32-0.307-0.32-0.66-0.53-1.06-0.63-0.4-0.107-0.82-0.16-1.26-0.16v0h-6.91c-0.16 0-0.24 0.08-0.24 0.24v0 10.67c0 0.473 0.073 0.853 0.22 1.14 0.147 0.28 0.347 0.493 0.6 0.64 0.253 0.147 0.54 0.243 0.86 0.29 0.327 0.053 0.67 0.08 1.03 0.08v0h6.66c0.947 0 1.737-0.217 2.37-0.65 0.64-0.433 1.153-0.957 1.54-1.57 0.393-0.62 0.683-1.263 0.87-1.93 0.187-0.667 0.303-1.237 0.35-1.71v0c0.033-0.213 0.14-0.38 0.32-0.5 0.18-0.12 0.383-0.18 0.61-0.18v0c0.08 0 0.177 0.03 0.29 0.09 0.113 0.067 0.17 0.14 0.17 0.22v0l-0.8 8.94c-0.033 0.08-0.08 0.157-0.14 0.23-0.053 0.073-0.12 0.11-0.2 0.11v0h-28.3c-0.1 0-0.157-0.03-0.17-0.09-0.02-0.053-0.03-0.09-0.03-0.11v0zM72.41 117.33v0c-0.033 0-0.073-0.02-0.12-0.06-0.047-0.04-0.07-0.087-0.07-0.14v0-1.07c0-0.127 0.063-0.19 0.19-0.19v0c0.18 0 0.383 0 0.61 0 0.227 0 0.45-0.01 0.67-0.03 0.22-0.013 0.42-0.03 0.6-0.05 0.18-0.013 0.32-0.047 0.42-0.1v0c0.407-0.193 0.74-0.453 1-0.78 0.26-0.327 0.46-0.7 0.6-1.12 0.133-0.42 0.227-0.883 0.28-1.39 0.047-0.507 0.07-1.043 0.07-1.61v0-24.39c0-0.44-0.173-0.793-0.52-1.06-0.353-0.273-0.763-0.477-1.23-0.61-0.46-0.14-0.93-0.237-1.41-0.29-0.48-0.047-0.843-0.07-1.09-0.07v0c-0.08 0-0.133-0.023-0.16-0.07-0.02-0.053-0.03-0.093-0.03-0.12v0-1.08c0-0.033 0.01-0.073 0.03-0.12 0.027-0.047 0.08-0.07 0.16-0.07v0h11.06l21.05 23.29c0.08 0.08 0.137 0.14 0.17 0.18 0.033 0.04 0.073 0.06 0.12 0.06v0c0.067 0 0.107-0.023 0.12-0.07 0.02-0.053 0.03-0.103 0.03-0.15v0-14.5c0-1.613-0.057-2.903-0.17-3.87-0.12-0.967-0.333-1.707-0.64-2.22-0.307-0.513-0.72-0.85-1.24-1.01-0.527-0.167-1.197-0.25-2.01-0.25v0h-1.24c-0.08 0-0.133-0.023-0.16-0.07-0.027-0.053-0.04-0.093-0.04-0.12v0-1.08c0-0.033 0.013-0.073 0.04-0.12 0.027-0.047 0.08-0.07 0.16-0.07v0h13.43c0.093 0 0.15 0.023 0.17 0.07 0.013 0.047 0.02 0.087 0.02 0.12v0 1.08c0 0.027-0.013 0.067-0.04 0.12-0.02 0.047-0.07 0.07-0.15 0.07v0c-0.327 0-0.747 0.067-1.26 0.2-0.513 0.127-1.013 0.313-1.5 0.56-0.493 0.24-0.913 0.54-1.26 0.9-0.353 0.36-0.53 0.767-0.53 1.22v0 28.88c0 0.28-0.063 0.513-0.19 0.7-0.133 0.187-0.3 0.337-0.5 0.45-0.207 0.113-0.427 0.2-0.66 0.26-0.233 0.053-0.45 0.08-0.65 0.08v0c-0.327 0-0.703-0.067-1.13-0.2-0.433-0.14-0.86-0.447-1.28-0.92v0l-23.05-25.56c-0.113-0.113-0.197-0.183-0.25-0.21-0.047-0.027-0.11-0.04-0.19-0.04v0c-0.08 0-0.12 0.083-0.12 0.25v0 21.8c0 0.453 0.11 0.847 0.33 1.18 0.22 0.333 0.5 0.62 0.84 0.86 0.34 0.233 0.717 0.42 1.13 0.56 0.42 0.14 0.83 0.25 1.23 0.33 0.393 0.08 0.75 0.133 1.07 0.16 0.32 0.027 0.56 0.04 0.72 0.04v0c0.08 0 0.137 0.03 0.17 0.09v0c0.02 0.033 0.03 0.067 0.03 0.1v0 1.07c0 0.033-0.013 0.077-0.04 0.13-0.027 0.047-0.08 0.07-0.16 0.07v0zM128.98 86.64v0c0-0.34-0.07-0.53-0.21-0.57-0.14-0.04-0.307-0.077-0.5-0.11v0h-8.27c-0.607 0.127-1.08 0.367-1.42 0.72-0.34 0.347-0.61 0.757-0.81 1.23-0.193 0.473-0.34 0.983-0.44 1.53-0.093 0.54-0.197 1.063-0.31 1.57v0c-0.033 0.147-0.067 0.323-0.1 0.53-0.033 0.2-0.067 0.317-0.1 0.35v0c-0.033 0.047-0.09 0.07-0.17 0.07v0h-0.81c-0.093 0-0.14-0.03-0.14-0.09v0-0.81l0.9-8.35c0.033-0.18 0.107-0.35 0.22-0.51 0.113-0.167 0.293-0.25 0.54-0.25v0c0.113 0 0.223 0.033 0.33 0.1 0.107 0.067 0.207 0.143 0.3 0.23 0.1 0.093 0.193 0.18 0.28 0.26 0.093 0.08 0.187 0.137 0.28 0.17v0c0.2 0.08 0.383 0.133 0.55 0.16 0.173 0.027 0.367 0.04 0.58 0.04v0h25.58c0.213 0 0.407-0.013 0.58-0.04 0.167-0.027 0.35-0.08 0.55-0.16v0c0.093-0.033 0.187-0.09 0.28-0.17 0.087-0.08 0.18-0.167 0.28-0.26 0.093-0.087 0.193-0.163 0.3-0.23 0.107-0.067 0.217-0.1 0.33-0.1v0c0.247 0 0.427 0.083 0.54 0.25 0.113 0.16 0.187 0.33 0.22 0.51v0l0.9 8.35v0.81c0 0.06-0.047 0.09-0.14 0.09v0h-0.81c-0.08 0-0.137-0.023-0.17-0.07v0c-0.033-0.033-0.067-0.15-0.1-0.35-0.033-0.207-0.067-0.383-0.1-0.53v0c-0.113-0.507-0.217-1.03-0.31-1.57-0.1-0.547-0.247-1.057-0.44-1.53-0.193-0.473-0.463-0.883-0.81-1.23-0.34-0.353-0.81-0.593-1.41-0.72v0h-8.3c-0.2 0.033-0.367 0.07-0.5 0.11-0.14 0.04-0.21 0.23-0.21 0.57v0 25.93c0 0.487 0.12 0.923 0.36 1.31 0.247 0.38 0.577 0.717 0.99 1.01 0.42 0.293 0.91 0.53 1.47 0.71 0.56 0.18 1.157 0.3 1.79 0.36v0c0.18 0.02 0.41 0.03 0.69 0.03 0.273 0 0.507 0 0.7 0v0c0.087 0 0.14 0.023 0.16 0.07 0.027 0.047 0.04 0.087 0.04 0.12v0 0.95c0 0.033-0.013 0.077-0.04 0.13-0.02 0.047-0.073 0.07-0.16 0.07v0h-18.97c-0.08 0-0.133-0.023-0.16-0.07-0.02-0.053-0.03-0.097-0.03-0.13v0-0.95c0-0.033 0.01-0.073 0.03-0.12 0.027-0.047 0.08-0.07 0.16-0.07v0c0.18 0 0.413 0 0.7 0 0.287 0 0.52-0.01 0.7-0.03v0c0.633-0.06 1.23-0.18 1.79-0.36 0.56-0.18 1.047-0.417 1.46-0.71 0.42-0.293 0.75-0.63 0.99-1.01 0.247-0.387 0.37-0.823 0.37-1.31v0zM151.88 116.35v-0.29c0-0.013 0.007-0.05 0.02-0.11 0.02-0.053 0.08-0.08 0.18-0.08v0c0.093 0 0.247-0.017 0.46-0.05 0.213-0.033 0.433-0.067 0.66-0.1 0.227-0.033 0.437-0.07 0.63-0.11 0.2-0.04 0.34-0.07 0.42-0.09v0c0.927-0.207 1.573-0.55 1.94-1.03 0.367-0.48 0.55-1.08 0.55-1.8v0-24.8c0-0.813-0.17-1.457-0.51-1.93-0.347-0.473-0.743-0.827-1.19-1.06-0.447-0.24-0.877-0.387-1.29-0.44-0.413-0.06-0.693-0.09-0.84-0.09v0h-0.93c-0.08 0-0.133-0.023-0.16-0.07-0.027-0.053-0.04-0.093-0.04-0.12v0-1.08c0-0.033 0.01-0.07 0.03-0.11 0.013-0.04 0.07-0.067 0.17-0.08v0c0.013 0 0.05 0 0.11 0 0.053 0 0.17-0.007 0.35-0.02 0.18-0.007 0.44-0.013 0.78-0.02 0.347-0.007 0.827-0.02 1.44-0.04v0c0.9-0.013 1.857-0.037 2.87-0.07 1.02-0.033 2.05-0.067 3.09-0.1 1.04-0.033 2.07-0.06 3.09-0.08 1.013-0.027 1.97-0.04 2.87-0.04v0h2.46c1.287 0 2.597 0.22 3.93 0.66 1.34 0.44 2.55 1.087 3.63 1.94 1.08 0.853 1.967 1.917 2.66 3.19 0.693 1.267 1.04 2.73 1.04 4.39v0c0 1.073-0.147 2.03-0.44 2.87-0.293 0.84-0.697 1.58-1.21 2.22-0.513 0.647-1.123 1.213-1.83 1.7-0.707 0.487-1.477 0.917-2.31 1.29v0l7.4 11.72c0.633 1.007 1.373 1.923 2.22 2.75 0.847 0.82 1.83 1.393 2.95 1.72v0c0.133 0.033 0.213 0.077 0.24 0.13 0.02 0.06 0.03 0.13 0.03 0.21v0c0 0.247-0.063 0.41-0.19 0.49-0.133 0.08-0.337 0.12-0.61 0.12v0c-0.687 0-1.463-0.043-2.33-0.13-0.873-0.093-1.75-0.24-2.63-0.44-0.88-0.207-1.713-0.473-2.5-0.8-0.787-0.327-1.45-0.733-1.99-1.22v0c-0.52-0.453-1.05-1.03-1.59-1.73-0.533-0.7-1.073-1.453-1.62-2.26-0.547-0.807-1.083-1.643-1.61-2.51-0.533-0.873-1.047-1.727-1.54-2.56-0.493-0.827-0.97-1.597-1.43-2.31-0.453-0.72-0.867-1.333-1.24-1.84v0l-3.81-0.26c-0.02 0-0.087 0-0.2 0-0.113 0-0.193 0.013-0.24 0.04v0c-0.047 0.033-0.08 0.067-0.1 0.1-0.013 0.033-0.02 0.1-0.02 0.2v0 10.4c0 0.44 0.057 0.823 0.17 1.15 0.113 0.32 0.303 0.6 0.57 0.84 0.267 0.233 0.617 0.423 1.05 0.57 0.433 0.147 0.96 0.26 1.58 0.34v0c0.093 0.02 0.233 0.047 0.42 0.08 0.187 0.033 0.39 0.07 0.61 0.11 0.22 0.04 0.437 0.077 0.65 0.11 0.213 0.033 0.393 0.05 0.54 0.05v0c0.093 0 0.15 0.023 0.17 0.07 0.013 0.047 0.02 0.087 0.02 0.12v0 1.07c0 0.033-0.01 0.077-0.03 0.13-0.027 0.047-0.08 0.07-0.16 0.07v0h-17.21c-0.087 0-0.14-0.113-0.16-0.34-0.027-0.227-0.04-0.44-0.04-0.64zM163.7 98.7l0.05 0.73c0.013 0.133 0.047 0.253 0.1 0.36 0.06 0.107 0.18 0.167 0.36 0.18v0c0.147 0.02 0.367 0.05 0.66 0.09 0.293 0.04 0.7 0.06 1.22 0.06v0c1.433 0 2.613-0.22 3.54-0.66 0.927-0.44 1.66-1.03 2.2-1.77 0.533-0.74 0.903-1.59 1.11-2.55 0.2-0.96 0.3-1.963 0.3-3.01v0c0-1.087-0.17-2.12-0.51-3.1-0.34-0.973-0.817-1.817-1.43-2.53-0.607-0.72-1.34-1.29-2.2-1.71-0.853-0.427-1.793-0.64-2.82-0.64v0c-0.227 0-0.403 0.003-0.53 0.01-0.133 0.013-0.26 0.023-0.38 0.03-0.12 0.007-0.26 0.013-0.42 0.02-0.153 0.007-0.367 0.02-0.64 0.04v0c-0.1 0-0.227 0.02-0.38 0.06-0.153 0.04-0.23 0.15-0.23 0.33v0zM187.82 116.79v-0.71c0-0.013 0.007-0.047 0.02-0.1 0.02-0.06 0.077-0.09 0.17-0.09v0h0.54c0.687-0.047 1.387-0.077 2.1-0.09 0.713-0.007 1.363-0.093 1.95-0.26 0.587-0.173 1.067-0.477 1.44-0.91 0.373-0.427 0.56-1.097 0.56-2.01v0-25c0-0.633-0.13-1.15-0.39-1.55-0.26-0.4-0.6-0.723-1.02-0.97-0.427-0.24-0.907-0.423-1.44-0.55-0.54-0.12-1.087-0.22-1.64-0.3v0h-0.51c-0.08 0-0.133-0.023-0.16-0.07-0.027-0.053-0.04-0.097-0.04-0.13v0-0.95c0-0.033 0.013-0.073 0.04-0.12 0.027-0.047 0.08-0.07 0.16-0.07v0h24.32c0.293 0 0.503 0.05 0.63 0.15 0.133 0.107 0.213 0.34 0.24 0.7v0l0.44 7.81c0 0.087-0.067 0.15-0.2 0.19-0.14 0.04-0.267 0.06-0.38 0.06v0c-0.133 0-0.263-0.017-0.39-0.05-0.133-0.033-0.223-0.083-0.27-0.15v0c-0.113-0.16-0.193-0.4-0.24-0.72-0.053-0.313-0.107-0.667-0.16-1.06-0.06-0.393-0.143-0.8-0.25-1.22-0.107-0.427-0.263-0.817-0.47-1.17-0.213-0.36-0.503-0.673-0.87-0.94-0.367-0.273-0.833-0.457-1.4-0.55v0h-8.72c-0.213 0-0.32 0.107-0.32 0.32v0 11.64c0 0.16 0.083 0.24 0.25 0.24v0h6.98c0.407 0 0.81-0.05 1.21-0.15 0.4-0.107 0.75-0.3 1.05-0.58 0.3-0.273 0.543-0.66 0.73-1.16 0.187-0.493 0.28-1.13 0.28-1.91v0c0-0.133 0.067-0.2 0.2-0.2v0h0.95c0.127 0 0.19 0.067 0.19 0.2v0 11.18c0 0.08-0.023 0.133-0.07 0.16-0.047 0.02-0.087 0.03-0.12 0.03v0h-0.95c-0.087 0-0.14-0.023-0.16-0.07-0.027-0.047-0.04-0.087-0.04-0.12v0c0-0.913-0.093-1.65-0.28-2.21-0.187-0.56-0.433-1-0.74-1.32-0.313-0.32-0.67-0.53-1.07-0.63-0.393-0.107-0.81-0.16-1.25-0.16v0h-6.91c-0.167 0-0.25 0.08-0.25 0.24v0 10.67c0 0.473 0.073 0.853 0.22 1.14 0.147 0.28 0.347 0.493 0.6 0.64 0.253 0.147 0.543 0.243 0.87 0.29 0.327 0.053 0.667 0.08 1.02 0.08v0h6.67c0.94 0 1.73-0.217 2.37-0.65 0.633-0.433 1.143-0.957 1.53-1.57 0.393-0.62 0.683-1.263 0.87-1.93 0.187-0.667 0.303-1.237 0.35-1.71v0c0.033-0.213 0.14-0.38 0.32-0.5 0.18-0.12 0.383-0.18 0.61-0.18v0c0.08 0 0.18 0.03 0.3 0.09 0.113 0.067 0.17 0.14 0.17 0.22v0l-0.81 8.94c-0.033 0.08-0.077 0.157-0.13 0.23-0.06 0.073-0.13 0.11-0.21 0.11v0h-28.3c-0.093 0-0.15-0.03-0.17-0.09-0.013-0.053-0.02-0.09-0.02-0.11v0z" fill="#000000" fill-rule="nonzero" stroke="none" stroke-width="1" stroke-linecap="butt" stroke-linejoin="miter" stroke-miterlimit="10" stroke-dasharray="" stroke-dashoffset="0" font-family="none" font-weight="none" font-size="none" text-anchor="none" style="mix-blend-mode: normal" data-fill-palette-color="accent" opacity="1"></path></g></svg></g></svg></g></svg></g></svg></g><g transform="matrix(1,0,0,1,0,0.4999999999999858)"><svg viewBox="0 0 172.2583951499966 200" height="200" width="172.2583951499966"><g><svg xmlns="http://www.w3.org/2000/svg" xmlns:xlink="http://www.w3.org/1999/xlink" version="1.1" x="0" y="0" viewBox="6.28000020980835 2 81.90800476074219 95.0989990234375" enable-background="new 0 0 100 100" xml:space="preserve" height="200" width="172.2583951499966" class="icon-icon-0" data-fill-palette-color="accent" id="icon-0"><g fill="#002f81" data-fill-palette-color="accent"><path d="M73.667 14H57.156l-8.287 5.857L56 19.379v11.05C56 31.845 57.34 32 58.757 32h11.272L76 26.791V15.518C76 14.102 75.082 14 73.667 14z" fill="#000000" data-fill-palette-color="accent"></path><polygon points="83.346,36.734 44.625,36.677 31.381,58.356 6.28,46.615 32.624,71.955 45,59.101 45,75.329  " fill="#000000" data-fill-palette-color="accent"></polygon><polygon points="88,90.401 88,97.099 45,97.038 45,90.68 88.188,47.295  " fill="#000000" data-fill-palette-color="accent"></polygon><polygon points="56.997,11 76,11 76,2 50.646,2  " fill="#000000" data-fill-palette-color="accent"></polygon></g></svg></g></svg></g></svg></g><defs></defs></svg><rect width="395.52" height="139.56452166149197" fill="none" stroke="none" visibility="hidden"></rect></g></svg></g></svg>